<svg id="svg" version="1.1" xmlns="http://www.w3.org/2000/svg" xmlns:xlink="http://www.w3.org/1999/xlink" width="400" height="400" viewBox="0, 0, 400,400"><g id="svgg"><path id="path0" d="M189.000 12.865 C 185.260 13.065,180.040 13.509,177.400 13.852 C 174.760 14.195,170.710 14.717,168.400 15.012 C 166.090 15.307,163.390 15.901,162.400 16.331 C 161.410 16.761,159.520 17.236,158.200 17.385 C 156.880 17.534,155.054 18.011,154.142 18.444 C 153.230 18.877,151.361 19.412,149.988 19.633 C 148.616 19.854,147.022 20.273,146.447 20.564 C 145.871 20.855,144.680 21.217,143.800 21.368 C 142.920 21.519,141.300 21.976,140.200 22.385 C 139.100 22.793,136.940 23.584,135.400 24.142 C 128.987 26.464,126.659 27.470,119.938 30.823 C 116.054 32.761,112.544 34.527,112.138 34.748 C 111.732 34.969,110.050 35.810,108.400 36.617 C 106.750 37.423,105.088 38.359,104.707 38.697 C 104.326 39.035,103.312 39.691,102.453 40.155 C 99.102 41.968,98.370 42.461,96.714 44.017 C 95.771 44.903,94.525 45.730,93.944 45.855 C 93.363 45.980,92.317 46.604,91.619 47.241 C 90.922 47.879,90.206 48.400,90.030 48.400 C 89.693 48.400,87.158 50.269,85.800 51.518 C 85.360 51.923,84.539 52.539,83.975 52.887 C 83.033 53.469,80.766 55.434,74.705 60.922 C 70.306 64.906,60.581 74.612,59.397 76.200 C 58.741 77.080,58.094 77.890,57.959 78.000 C 57.611 78.283,54.791 81.652,53.600 83.207 C 53.050 83.925,52.202 84.982,51.716 85.556 C 49.725 87.909,48.879 89.065,48.246 90.300 C 47.879 91.015,47.434 91.600,47.257 91.600 C 47.080 91.600,46.683 92.095,46.374 92.700 C 45.673 94.075,43.226 97.731,42.828 98.000 C 42.665 98.110,41.843 99.460,41.002 101.000 C 40.162 102.540,39.168 104.160,38.794 104.600 C 38.104 105.412,37.405 106.711,34.383 112.800 C 33.455 114.670,32.359 116.629,31.948 117.154 C 31.537 117.679,31.200 118.372,31.200 118.695 C 31.200 119.018,30.296 121.088,29.191 123.295 C 27.247 127.179,26.277 129.503,24.142 135.400 C 23.584 136.940,22.793 139.100,22.385 140.200 C 21.976 141.300,21.519 142.920,21.368 143.800 C 21.217 144.680,20.855 145.871,20.564 146.447 C 20.273 147.022,19.854 148.616,19.633 149.988 C 19.412 151.361,18.881 153.230,18.453 154.142 C 18.026 155.054,17.553 156.880,17.404 158.200 C 17.254 159.520,16.777 161.410,16.343 162.400 C 15.893 163.428,15.312 166.279,14.987 169.048 C 14.675 171.715,14.211 174.415,13.955 175.048 C 12.265 179.238,12.415 220.171,14.142 226.400 C 14.478 227.610,14.945 230.364,15.180 232.520 C 15.416 234.676,15.870 236.840,16.189 237.328 C 16.509 237.816,16.977 239.562,17.230 241.208 C 17.483 242.853,18.016 244.920,18.415 245.800 C 18.814 246.680,19.348 248.555,19.600 249.966 C 19.852 251.377,20.311 253.177,20.618 253.966 C 20.926 254.755,21.356 256.120,21.574 257.000 C 22.096 259.111,23.865 264.273,24.609 265.860 C 24.934 266.554,25.200 267.260,25.200 267.429 C 25.200 268.355,29.407 277.899,31.976 282.800 C 32.379 283.570,34.012 286.720,35.603 289.800 C 37.195 292.880,38.631 295.490,38.795 295.600 C 38.959 295.710,39.522 296.580,40.046 297.534 C 42.009 301.103,42.279 301.541,43.228 302.692 C 43.763 303.340,44.650 304.624,45.200 305.544 C 46.133 307.106,49.762 312.127,51.602 314.400 C 55.003 318.603,56.947 320.980,58.964 323.400 C 62.465 327.602,71.278 336.450,75.800 340.303 C 78.000 342.178,80.072 344.001,80.405 344.356 C 80.738 344.710,81.908 345.665,83.005 346.478 C 84.102 347.290,85.450 348.333,86.000 348.796 C 87.882 350.377,91.548 352.972,94.600 354.884 C 95.700 355.573,97.050 356.533,97.600 357.018 C 98.150 357.502,99.071 358.146,99.648 358.449 C 102.797 360.105,104.262 360.947,104.800 361.410 C 105.130 361.695,107.740 363.135,110.600 364.611 C 113.460 366.087,116.278 367.633,116.862 368.047 C 117.446 368.461,118.139 368.800,118.403 368.800 C 118.667 368.800,121.069 369.859,123.741 371.153 C 128.355 373.387,130.465 374.267,135.294 375.975 C 136.452 376.385,138.619 377.188,140.108 377.760 C 141.597 378.332,143.271 378.800,143.828 378.800 C 144.384 378.800,145.333 379.055,145.937 379.367 C 146.540 379.679,148.196 380.143,149.617 380.398 C 151.038 380.653,153.010 381.218,154.000 381.654 C 154.990 382.089,156.978 382.594,158.417 382.775 C 159.856 382.956,161.871 383.486,162.895 383.952 C 163.919 384.418,165.372 384.800,166.126 384.800 C 166.879 384.800,169.004 385.056,170.848 385.368 C 187.739 388.229,213.202 388.415,226.863 385.777 C 229.647 385.240,232.707 384.796,233.663 384.791 C 234.618 384.786,236.196 384.421,237.169 383.980 C 238.141 383.539,240.211 382.997,241.769 382.776 C 243.326 382.555,245.320 382.032,246.200 381.613 C 247.080 381.193,248.962 380.644,250.383 380.393 C 251.804 380.141,253.460 379.679,254.063 379.367 C 254.667 379.055,255.628 378.800,256.200 378.800 C 256.772 378.800,257.799 378.511,258.483 378.157 C 259.166 377.804,260.822 377.193,262.163 376.801 C 265.244 375.898,266.955 375.295,269.111 374.350 C 270.052 373.937,270.998 373.600,271.214 373.600 C 271.835 373.600,294.795 362.058,295.956 361.163 C 297.605 359.891,300.001 358.400,300.397 358.400 C 300.596 358.400,301.812 357.524,303.099 356.453 C 304.386 355.381,305.880 354.367,306.419 354.198 C 306.959 354.029,307.940 353.454,308.600 352.919 C 311.005 350.972,315.181 347.771,316.844 346.600 C 323.313 342.046,340.896 324.502,346.263 317.248 C 348.442 314.302,351.535 310.275,352.846 308.676 C 353.421 307.974,354.030 306.959,354.199 306.419 C 354.367 305.880,355.381 304.386,356.453 303.099 C 357.524 301.812,358.400 300.596,358.400 300.397 C 358.400 300.001,359.891 297.605,361.163 295.956 C 362.060 294.793,372.885 273.261,373.759 270.901 C 374.658 268.474,375.285 266.729,376.025 264.600 C 376.407 263.500,377.188 261.381,377.760 259.892 C 378.332 258.403,378.800 256.729,378.800 256.172 C 378.800 255.616,379.055 254.667,379.367 254.063 C 379.679 253.460,380.141 251.804,380.393 250.383 C 380.644 248.962,381.193 247.080,381.613 246.200 C 382.032 245.320,382.561 243.283,382.790 241.673 C 383.018 240.063,383.564 237.958,384.002 236.995 C 384.441 236.032,384.801 234.649,384.801 233.922 C 384.802 233.195,385.171 230.440,385.621 227.800 C 388.327 211.934,388.217 186.641,385.374 171.056 C 385.058 169.327,384.800 167.202,384.800 166.334 C 384.800 165.466,384.418 163.919,383.952 162.895 C 383.486 161.871,382.956 159.856,382.775 158.417 C 382.594 156.978,382.089 154.990,381.654 154.000 C 381.218 153.010,380.653 151.038,380.398 149.617 C 380.143 148.196,379.679 146.540,379.367 145.937 C 379.055 145.333,378.800 144.384,378.800 143.828 C 378.800 143.271,378.332 141.597,377.760 140.108 C 377.188 138.619,376.385 136.452,375.975 135.294 C 374.072 129.912,373.171 127.902,368.059 117.631 C 363.010 107.485,360.172 102.401,359.236 101.822 C 359.028 101.694,358.638 100.920,358.368 100.104 C 358.099 99.287,357.050 97.600,356.039 96.354 C 355.028 95.109,353.660 93.153,353.000 92.008 C 352.340 90.862,350.855 88.797,349.700 87.417 C 348.545 86.038,347.600 84.777,347.600 84.615 C 347.600 83.840,339.563 74.856,332.400 67.624 C 326.120 61.284,316.115 52.400,315.256 52.400 C 315.084 52.400,314.327 51.843,313.572 51.163 C 311.257 49.076,307.585 46.375,306.505 45.964 C 305.942 45.750,304.590 44.829,303.502 43.918 C 302.413 43.006,301.016 41.977,300.396 41.630 C 299.776 41.284,298.488 40.571,297.534 40.046 C 296.580 39.522,295.710 38.958,295.600 38.794 C 294.986 37.876,268.757 25.207,267.460 25.201 C 267.274 25.201,266.554 24.934,265.860 24.609 C 264.273 23.865,259.111 22.096,257.000 21.574 C 256.120 21.356,254.755 20.926,253.966 20.618 C 253.177 20.311,251.377 19.852,249.966 19.600 C 248.555 19.348,246.680 18.814,245.800 18.415 C 244.920 18.016,242.853 17.483,241.208 17.230 C 239.562 16.977,237.816 16.509,237.328 16.189 C 236.840 15.870,234.676 15.419,232.520 15.188 C 230.364 14.958,228.334 14.676,228.009 14.562 C 224.226 13.238,200.962 12.226,189.000 12.865 M210.436 74.344 C 211.147 75.223,211.200 76.059,211.200 86.400 C 211.200 100.469,210.432 99.187,219.117 99.620 C 225.686 99.947,226.464 100.059,228.600 100.982 C 229.260 101.268,231.132 101.617,232.761 101.759 C 234.447 101.906,236.340 102.346,237.161 102.782 C 237.952 103.203,239.430 103.656,240.444 103.790 C 241.458 103.923,242.888 104.475,243.622 105.016 C 244.355 105.557,245.462 106.000,246.080 106.000 C 246.782 106.000,247.533 106.376,248.075 107.000 C 248.553 107.550,249.244 108.000,249.610 108.000 C 251.508 108.000,251.541 108.302,251.630 126.343 C 251.700 140.447,251.620 143.342,251.157 143.635 C 250.131 144.285,247.765 144.045,247.014 143.215 C 246.623 142.783,245.650 142.217,244.852 141.956 C 244.053 141.696,242.773 141.149,242.006 140.741 C 241.239 140.334,240.355 140.000,240.041 140.000 C 239.727 140.000,238.734 139.572,237.835 139.048 C 236.936 138.525,235.570 137.963,234.800 137.800 C 234.030 137.636,232.770 137.186,232.000 136.799 C 231.230 136.412,229.610 135.964,228.400 135.803 C 227.190 135.643,225.570 135.243,224.800 134.915 C 224.030 134.588,221.870 134.068,220.000 133.760 C 218.130 133.452,215.790 133.015,214.800 132.789 C 207.115 131.031,195.147 131.249,190.081 133.239 C 189.576 133.438,188.642 133.600,188.005 133.600 C 184.671 133.600,175.646 140.243,174.963 143.200 C 174.836 143.750,174.477 144.879,174.166 145.708 C 173.490 147.509,173.437 150.290,174.035 152.554 C 175.463 157.956,175.639 158.316,178.126 160.936 C 180.553 163.492,184.076 166.400,184.746 166.400 C 184.932 166.400,185.876 166.994,186.842 167.720 C 188.409 168.896,195.840 172.800,196.512 172.800 C 196.657 172.800,197.729 173.236,198.894 173.769 C 200.059 174.302,201.550 174.865,202.206 175.021 C 202.863 175.177,203.760 175.625,204.200 176.017 C 204.640 176.408,205.744 176.926,206.653 177.167 C 207.563 177.408,208.530 177.874,208.802 178.203 C 209.075 178.531,209.520 178.800,209.792 178.800 C 210.064 178.800,212.067 179.684,214.243 180.764 C 216.419 181.844,219.729 183.303,221.599 184.007 C 223.468 184.710,225.476 185.627,226.060 186.043 C 226.645 186.459,227.307 186.800,227.531 186.800 C 227.755 186.800,228.447 187.224,229.069 187.742 C 229.691 188.260,230.876 188.905,231.703 189.174 C 232.530 189.444,233.380 189.989,233.592 190.385 C 233.805 190.782,234.584 191.221,235.325 191.360 C 236.066 191.499,237.092 192.059,237.606 192.606 C 238.119 193.153,238.772 193.600,239.056 193.600 C 239.340 193.600,239.765 193.960,240.000 194.400 C 240.235 194.840,240.664 195.200,240.952 195.200 C 241.240 195.200,241.815 195.575,242.230 196.033 C 242.645 196.491,243.533 197.095,244.204 197.376 C 245.502 197.918,247.741 199.968,248.419 201.236 C 248.644 201.656,249.030 202.000,249.276 202.000 C 249.948 202.000,256.800 210.335,256.800 211.152 C 256.800 211.339,257.175 211.969,257.634 212.552 C 258.093 213.135,258.651 214.285,258.874 215.106 C 259.097 215.928,259.543 216.897,259.865 217.260 C 263.643 221.514,265.246 245.765,262.020 249.865 C 261.559 250.452,261.200 251.502,261.200 252.267 C 261.200 253.724,260.675 255.035,258.824 258.200 C 258.180 259.300,257.442 260.650,257.184 261.200 C 256.483 262.694,256.344 262.908,254.500 265.331 C 253.565 266.560,252.798 267.709,252.795 267.883 C 252.788 268.339,247.565 273.377,246.520 273.936 C 246.037 274.194,244.812 275.124,243.797 276.003 C 242.782 276.881,241.720 277.600,241.438 277.600 C 241.155 277.600,240.598 277.961,240.198 278.402 C 239.799 278.843,238.772 279.392,237.915 279.623 C 237.059 279.853,236.007 280.393,235.579 280.821 C 235.151 281.249,234.302 281.600,233.693 281.600 C 233.084 281.600,231.947 282.034,231.166 282.564 C 230.386 283.095,228.859 283.660,227.774 283.821 C 226.688 283.981,225.394 284.429,224.897 284.816 C 224.332 285.257,222.912 285.618,221.097 285.784 C 218.426 286.029,216.458 286.510,212.800 287.812 L 211.400 288.310 211.186 301.655 C 211.069 308.995,210.934 315.054,210.886 315.120 C 209.996 316.360,193.983 317.050,190.915 315.980 C 188.903 315.279,188.800 314.583,188.800 301.643 C 188.800 287.444,189.288 288.613,183.200 288.234 C 174.853 287.714,169.401 287.132,168.889 286.708 C 168.602 286.470,166.774 286.143,164.827 285.982 C 162.195 285.764,160.994 285.474,160.144 284.851 C 159.462 284.352,157.910 283.862,156.302 283.637 C 154.641 283.406,153.198 282.942,152.548 282.430 C 151.962 281.969,150.903 281.600,150.167 281.600 C 149.439 281.600,147.996 281.150,146.962 280.600 C 145.927 280.050,144.736 279.600,144.314 279.600 C 143.534 279.600,141.963 278.907,141.600 278.402 C 141.490 278.249,140.595 277.871,139.612 277.562 C 138.377 277.174,137.542 276.580,136.912 275.641 L 136.000 274.282 136.000 257.364 L 136.000 240.445 136.889 239.823 C 138.135 238.950,139.049 239.044,140.564 240.200 C 141.286 240.750,142.074 241.200,142.317 241.200 C 142.560 241.200,143.244 241.650,143.838 242.200 C 144.431 242.750,145.135 243.200,145.403 243.200 C 145.670 243.200,146.519 243.628,147.290 244.151 C 148.061 244.674,149.347 245.319,150.149 245.583 C 150.951 245.848,151.831 246.280,152.104 246.543 C 152.377 246.806,153.895 247.239,155.478 247.506 C 157.061 247.772,159.041 248.335,159.878 248.756 C 160.715 249.178,162.300 249.644,163.400 249.792 C 164.500 249.941,165.814 250.329,166.321 250.654 C 166.827 250.980,168.919 251.498,170.969 251.805 C 173.019 252.113,175.394 252.631,176.248 252.956 C 181.709 255.036,208.679 254.925,212.200 252.808 C 212.860 252.411,214.028 251.953,214.796 251.790 C 215.564 251.627,216.751 251.068,217.434 250.547 C 218.117 250.026,218.857 249.600,219.078 249.600 C 219.300 249.600,220.046 249.060,220.737 248.400 C 221.428 247.740,222.174 247.200,222.396 247.200 C 222.618 247.200,222.800 246.999,222.800 246.754 C 222.800 246.508,223.610 245.089,224.600 243.600 C 226.496 240.748,227.029 237.565,226.021 235.119 C 225.813 234.613,225.369 233.202,225.034 231.982 C 224.350 229.491,221.179 225.772,218.100 223.851 C 217.165 223.267,216.400 222.643,216.400 222.462 C 216.400 222.061,212.934 219.783,211.485 219.232 C 210.349 218.801,207.500 217.052,206.200 215.990 C 205.760 215.630,204.590 215.108,203.600 214.830 C 201.426 214.218,194.039 210.585,193.433 209.829 C 193.195 209.532,192.055 209.071,190.900 208.805 C 189.745 208.538,188.800 208.175,188.800 207.998 C 188.800 207.820,187.985 207.398,186.989 207.058 C 185.993 206.719,184.709 206.072,184.135 205.621 C 183.562 205.169,182.781 204.800,182.400 204.800 C 182.019 204.800,181.227 204.422,180.640 203.960 C 180.053 203.498,178.661 202.880,177.546 202.586 C 176.431 202.292,175.223 201.791,174.860 201.473 C 174.497 201.155,173.827 200.781,173.371 200.643 C 172.914 200.504,172.194 200.073,171.771 199.685 C 171.347 199.296,169.590 198.286,167.867 197.439 C 166.144 196.591,164.308 195.471,163.786 194.949 C 163.264 194.427,162.627 194.000,162.371 194.000 C 161.923 194.000,159.883 192.435,158.186 190.789 C 157.738 190.355,157.163 190.000,156.907 190.000 C 155.900 190.000,151.317 185.809,148.595 182.400 C 147.805 181.410,146.403 179.728,145.479 178.662 C 144.556 177.597,143.552 176.247,143.250 175.662 C 142.947 175.078,142.475 174.330,142.201 174.000 C 141.926 173.670,141.476 172.680,141.201 171.800 C 140.926 170.920,140.379 169.840,139.985 169.400 C 139.591 168.960,139.142 167.743,138.988 166.695 C 138.834 165.647,138.537 164.685,138.329 164.556 C 136.788 163.604,136.048 154.962,136.741 146.000 C 137.072 141.706,137.669 138.742,138.389 137.800 C 138.558 137.580,138.821 136.705,138.974 135.856 C 139.269 134.222,141.575 129.568,142.595 128.548 C 142.928 128.215,143.200 127.594,143.200 127.168 C 143.200 126.741,143.740 125.828,144.400 125.137 C 145.060 124.446,145.600 123.666,145.600 123.403 C 145.600 123.139,145.960 122.598,146.400 122.200 C 146.840 121.802,147.200 121.288,147.200 121.058 C 147.200 120.829,147.737 120.092,148.393 119.420 C 149.050 118.749,150.805 116.940,152.293 115.400 C 153.782 113.860,155.573 112.240,156.273 111.800 C 156.974 111.360,158.364 110.424,159.364 109.720 C 160.363 109.016,161.797 108.324,162.551 108.183 C 163.304 108.042,164.281 107.511,164.723 107.003 C 165.164 106.495,166.127 105.949,166.863 105.788 C 167.598 105.627,168.618 105.168,169.128 104.768 C 169.639 104.368,170.899 103.925,171.928 103.784 C 172.958 103.644,174.265 103.201,174.834 102.801 C 175.402 102.401,176.932 101.945,178.234 101.787 C 179.535 101.629,180.960 101.309,181.400 101.077 C 181.840 100.844,183.640 100.372,185.400 100.027 L 188.600 99.400 188.800 87.161 C 189.011 74.219,189.068 73.856,190.929 73.465 C 194.384 72.740,209.696 73.430,210.436 74.344 " stroke="none" fill="#9bcbfb" fill-rule="evenodd"></path><path id="path1" d="M181.600 2.351 C 181.600 4.059,180.742 4.597,179.249 3.825 C 178.316 3.343,176.717 3.200,172.245 3.200 L 166.451 3.200 166.325 4.500 C 166.216 5.636,166.074 5.781,165.200 5.649 C 161.153 5.037,155.398 5.414,155.272 6.300 C 155.143 7.209,154.002 7.355,147.463 7.304 C 146.901 7.299,146.769 7.525,146.907 8.249 L 147.089 9.200 142.745 9.250 C 136.264 9.325,136.617 9.254,136.473 10.500 C 136.357 11.513,136.208 11.600,134.599 11.600 C 132.919 11.600,132.846 11.651,132.725 12.900 C 132.624 13.956,132.450 14.171,131.800 14.045 C 128.941 13.490,126.199 13.804,126.072 14.700 C 125.959 15.494,125.713 15.600,123.972 15.600 C 122.146 15.600,122.000 15.673,122.000 16.579 C 122.000 17.478,121.828 17.568,119.900 17.679 C 117.916 17.793,117.793 17.864,117.668 18.952 L 117.537 20.104 115.068 19.912 C 112.024 19.675,111.600 19.812,111.600 21.033 C 111.600 21.798,111.391 22.000,110.600 22.000 C 110.050 22.000,109.578 22.180,109.550 22.400 C 109.522 22.620,109.478 23.025,109.450 23.300 C 109.419 23.613,108.614 23.845,107.300 23.921 C 105.372 24.032,105.200 24.122,105.200 25.021 C 105.200 25.929,105.055 26.000,103.200 26.000 C 101.143 26.000,100.832 26.244,101.700 27.179 C 102.100 27.610,102.100 27.661,101.700 27.435 C 101.425 27.280,101.200 27.343,101.200 27.576 C 101.200 27.809,100.660 28.000,100.000 28.000 C 99.310 28.000,98.797 28.212,98.794 28.500 C 98.790 28.845,98.697 28.864,98.494 28.561 C 98.332 28.319,97.888 28.124,97.506 28.127 C 96.974 28.132,96.916 28.257,97.255 28.667 C 97.582 29.060,97.574 29.200,97.225 29.200 C 96.965 29.200,96.866 29.383,97.004 29.607 C 97.142 29.830,97.468 29.891,97.728 29.742 C 97.999 29.587,98.058 29.626,97.867 29.836 C 97.507 30.229,97.325 30.274,95.800 30.350 C 95.013 30.389,94.800 30.613,94.800 31.400 C 94.800 32.333,94.667 32.400,92.800 32.400 C 90.933 32.400,90.800 32.467,90.800 33.400 C 90.800 34.345,90.680 34.400,88.600 34.400 C 87.390 34.400,86.421 34.535,86.447 34.700 C 86.634 35.882,86.315 36.400,85.400 36.400 C 84.552 36.400,84.400 36.585,84.400 37.618 C 84.400 38.360,84.205 38.810,83.900 38.770 C 82.743 38.620,82.400 38.855,82.400 39.800 C 82.400 40.600,82.200 40.800,81.400 40.800 C 80.600 40.800,80.400 41.000,80.400 41.800 C 80.400 42.745,80.280 42.800,78.200 42.800 C 76.120 42.800,76.000 42.855,76.000 43.800 C 76.000 44.600,75.800 44.800,75.000 44.800 C 74.208 44.800,74.000 45.002,74.000 45.772 C 74.000 46.476,73.751 46.780,73.100 46.872 C 72.522 46.954,72.154 47.322,72.072 47.900 C 71.963 48.671,71.702 48.800,70.252 48.800 C 68.435 48.800,67.600 49.329,67.600 50.480 C 67.600 50.981,67.296 51.200,66.600 51.200 C 65.800 51.200,65.600 51.400,65.600 52.200 C 65.600 53.000,65.400 53.200,64.600 53.200 C 63.800 53.200,63.600 53.400,63.600 54.200 C 63.600 55.000,63.400 55.200,62.600 55.200 C 61.807 55.200,61.600 55.402,61.600 56.173 C 61.600 56.938,61.364 57.174,60.500 57.273 C 59.627 57.374,59.400 57.606,59.400 58.400 C 59.400 59.200,59.200 59.400,58.400 59.400 C 57.606 59.400,57.374 59.627,57.273 60.500 C 57.174 61.364,56.938 61.600,56.173 61.600 C 55.402 61.600,55.200 61.807,55.200 62.600 C 55.200 63.400,55.000 63.600,54.200 63.600 C 53.400 63.600,53.200 63.800,53.200 64.600 C 53.200 65.400,53.000 65.600,52.200 65.600 C 51.400 65.600,51.200 65.800,51.200 66.600 C 51.200 67.398,50.999 67.600,50.208 67.600 C 49.482 67.600,49.148 67.870,48.963 68.603 C 48.811 69.212,48.335 69.701,47.756 69.847 C 46.911 70.059,46.800 70.314,46.800 72.043 C 46.800 73.864,46.730 74.000,45.800 74.000 C 45.000 74.000,44.800 74.200,44.800 75.000 C 44.800 75.800,44.600 76.000,43.800 76.000 C 42.855 76.000,42.800 76.120,42.800 78.200 C 42.800 80.280,42.745 80.400,41.800 80.400 C 41.000 80.400,40.800 80.600,40.800 81.400 C 40.800 82.200,40.600 82.400,39.800 82.400 C 38.855 82.400,38.620 82.743,38.770 83.900 C 38.810 84.205,38.360 84.400,37.618 84.400 C 36.585 84.400,36.400 84.552,36.400 85.400 C 36.400 86.200,36.200 86.400,35.400 86.400 C 34.455 86.400,34.400 86.520,34.400 88.600 C 34.400 90.680,34.345 90.800,33.400 90.800 C 32.467 90.800,32.400 90.933,32.400 92.800 C 32.400 94.667,32.333 94.800,31.400 94.800 C 30.613 94.800,30.389 95.013,30.350 95.800 C 30.274 97.325,30.229 97.507,29.836 97.867 C 29.626 98.058,29.587 97.999,29.742 97.728 C 29.891 97.468,29.830 97.142,29.607 97.004 C 29.383 96.866,29.200 96.965,29.200 97.225 C 29.200 97.574,29.060 97.582,28.667 97.255 C 28.257 96.916,28.132 96.974,28.127 97.506 C 28.124 97.888,28.319 98.332,28.561 98.494 C 28.864 98.697,28.845 98.790,28.500 98.794 C 28.212 98.797,28.000 99.310,28.000 100.000 C 28.000 101.013,27.844 101.200,27.000 101.200 C 26.067 101.200,26.000 101.333,26.000 103.200 C 26.000 105.055,25.929 105.200,25.021 105.200 C 24.122 105.200,24.032 105.372,23.921 107.300 C 23.845 108.614,23.613 109.419,23.300 109.450 C 23.025 109.478,22.620 109.522,22.400 109.550 C 22.180 109.578,22.000 110.050,22.000 110.600 C 22.000 111.391,21.798 111.600,21.033 111.600 C 19.812 111.600,19.675 112.024,19.912 115.068 L 20.104 117.537 18.952 117.668 C 17.864 117.793,17.793 117.916,17.679 119.900 C 17.568 121.828,17.478 122.000,16.579 122.000 C 15.673 122.000,15.600 122.146,15.600 123.972 C 15.600 125.713,15.494 125.959,14.700 126.072 C 13.804 126.199,13.490 128.941,14.045 131.800 C 14.171 132.450,13.956 132.624,12.900 132.725 C 11.651 132.846,11.600 132.919,11.600 134.599 C 11.600 136.208,11.513 136.357,10.500 136.473 C 9.254 136.617,9.325 136.264,9.250 142.745 L 9.200 147.089 8.249 146.907 C 7.525 146.769,7.299 146.901,7.304 147.463 C 7.355 154.002,7.209 155.143,6.300 155.272 C 5.414 155.398,5.037 161.153,5.649 165.200 C 5.781 166.074,5.636 166.216,4.500 166.325 L 3.200 166.451 3.200 171.239 C 3.200 174.941,3.344 176.248,3.835 176.998 C 4.953 178.703,3.832 181.414,2.130 181.124 C 1.433 181.006,1.395 181.853,1.296 199.700 L 1.192 218.400 2.382 218.400 C 4.013 218.400,4.708 219.671,3.818 221.029 C 2.719 222.705,3.090 233.842,4.239 233.685 C 5.427 233.523,6.175 234.526,5.628 235.548 C 5.392 235.988,5.200 238.249,5.200 240.574 L 5.200 244.800 6.200 244.800 C 7.114 244.800,7.750 249.718,7.247 252.900 C 7.221 253.065,7.650 253.200,8.200 253.200 L 9.200 253.200 9.250 257.400 C 9.325 263.717,9.257 263.384,10.500 263.527 C 11.516 263.643,11.600 263.789,11.600 265.427 C 11.600 266.554,11.782 267.217,12.100 267.246 C 12.375 267.272,12.780 267.334,13.000 267.385 C 13.220 267.436,13.725 267.506,14.123 267.539 C 14.789 267.595,14.797 267.669,14.223 268.489 C 13.100 270.092,13.367 274.000,14.600 274.000 C 15.533 274.000,15.600 274.133,15.600 276.000 C 15.600 277.855,15.671 278.000,16.579 278.000 C 17.478 278.000,17.568 278.172,17.679 280.100 C 17.793 282.084,17.864 282.207,18.952 282.332 L 20.104 282.463 19.912 284.932 C 19.676 287.964,19.814 288.400,21.007 288.400 C 21.735 288.400,21.975 288.648,22.073 289.500 C 22.164 290.288,22.456 290.636,23.100 290.728 C 23.894 290.841,24.000 291.087,24.000 292.828 C 24.000 294.665,24.069 294.800,25.000 294.800 C 25.933 294.800,26.000 294.933,26.000 296.800 C 26.000 298.667,26.067 298.800,27.000 298.800 C 28.034 298.800,28.079 298.943,28.103 302.300 C 28.108 303.022,28.336 303.200,29.255 303.200 C 30.210 303.200,30.400 303.366,30.400 304.200 C 30.400 305.000,30.600 305.200,31.400 305.200 C 32.333 305.200,32.400 305.333,32.400 307.200 C 32.400 309.067,32.467 309.200,33.400 309.200 C 34.345 309.200,34.400 309.320,34.400 311.400 C 34.400 313.480,34.455 313.600,35.400 313.600 C 36.200 313.600,36.400 313.800,36.400 314.600 C 36.400 315.448,36.585 315.600,37.618 315.600 C 38.360 315.600,38.810 315.795,38.770 316.100 C 38.620 317.257,38.855 317.600,39.800 317.600 C 40.600 317.600,40.800 317.800,40.800 318.600 C 40.800 319.400,41.000 319.600,41.800 319.600 C 42.745 319.600,42.800 319.720,42.800 321.800 C 42.800 323.880,42.855 324.000,43.800 324.000 C 44.600 324.000,44.800 324.200,44.800 325.000 C 44.800 325.800,45.000 326.000,45.800 326.000 C 46.733 326.000,46.800 326.134,46.800 327.992 C 46.800 329.765,46.907 330.011,47.765 330.227 C 48.340 330.371,48.829 330.860,48.973 331.435 C 49.148 332.131,49.492 332.400,50.208 332.400 C 50.999 332.400,51.200 332.602,51.200 333.400 C 51.200 334.200,51.400 334.400,52.200 334.400 C 53.000 334.400,53.200 334.600,53.200 335.400 C 53.200 336.200,53.400 336.400,54.200 336.400 C 55.000 336.400,55.200 336.600,55.200 337.400 C 55.200 338.193,55.402 338.400,56.173 338.400 C 56.938 338.400,57.174 338.636,57.273 339.498 C 57.366 340.302,57.669 340.650,58.405 340.798 C 59.079 340.933,59.408 341.264,59.405 341.800 C 59.401 342.377,59.707 342.635,60.500 342.727 C 61.364 342.826,61.600 343.062,61.600 343.827 C 61.600 344.598,61.807 344.800,62.600 344.800 C 63.400 344.800,63.600 345.000,63.600 345.800 C 63.600 346.600,63.800 346.800,64.600 346.800 C 65.400 346.800,65.600 347.000,65.600 347.800 C 65.600 348.593,65.802 348.800,66.573 348.800 C 67.338 348.800,67.574 349.036,67.673 349.900 C 67.764 350.687,68.056 351.036,68.699 351.128 C 69.260 351.207,69.690 351.621,69.843 352.228 C 70.060 353.092,70.305 353.200,72.043 353.200 C 73.864 353.200,74.000 353.270,74.000 354.200 C 74.000 355.000,74.200 355.200,75.000 355.200 C 75.800 355.200,76.000 355.400,76.000 356.200 C 76.000 357.145,76.120 357.200,78.200 357.200 C 80.280 357.200,80.400 357.255,80.400 358.200 C 80.400 358.993,80.602 359.200,81.373 359.200 C 82.138 359.200,82.374 359.436,82.473 360.300 C 82.564 361.088,82.856 361.436,83.500 361.528 C 84.151 361.620,84.400 361.924,84.400 362.628 C 84.400 363.398,84.608 363.600,85.400 363.600 C 86.200 363.600,86.400 363.800,86.400 364.600 C 86.400 365.545,86.520 365.600,88.600 365.600 C 90.680 365.600,90.800 365.655,90.800 366.600 C 90.800 367.533,90.933 367.600,92.800 367.600 C 94.652 367.600,94.800 367.672,94.800 368.573 C 94.800 369.338,95.036 369.574,95.900 369.673 C 96.519 369.745,96.956 370.019,96.900 370.300 C 96.845 370.575,97.002 370.800,97.249 370.800 C 97.552 370.800,97.530 371.002,97.181 371.423 C 96.897 371.765,96.830 372.014,97.032 371.975 C 99.021 371.597,101.153 372.062,101.272 372.900 C 101.381 373.668,101.679 373.818,103.300 373.922 C 105.003 374.031,105.200 374.143,105.200 375.001 C 105.200 375.874,105.385 375.969,107.300 376.079 C 108.614 376.155,109.419 376.387,109.450 376.700 C 109.478 376.975,109.522 377.380,109.550 377.600 C 109.578 377.820,110.038 378.000,110.573 378.000 C 111.338 378.000,111.574 378.236,111.673 379.100 C 111.812 380.301,111.748 380.278,115.172 380.350 C 117.310 380.395,117.557 380.489,117.672 381.300 C 117.783 382.082,118.071 382.216,119.875 382.320 C 121.663 382.424,121.967 382.561,122.075 383.320 C 122.181 384.065,122.492 384.219,124.100 384.322 C 125.840 384.434,126.000 384.530,126.000 385.467 C 126.000 386.470,129.191 386.734,132.000 385.964 C 132.444 385.843,132.599 386.137,132.596 387.100 C 132.592 388.383,132.617 388.400,134.470 388.400 C 136.220 388.400,136.355 388.474,136.473 389.500 L 136.600 390.600 141.842 390.711 L 147.085 390.822 146.893 391.828 C 146.787 392.381,146.858 392.804,147.050 392.769 C 147.940 392.607,156.141 392.887,155.700 393.065 C 155.425 393.176,155.200 393.614,155.200 394.038 C 155.200 394.766,155.501 394.803,160.700 394.709 L 166.200 394.609 166.125 395.704 L 166.049 396.800 171.896 396.800 C 175.393 396.800,178.269 396.610,179.052 396.327 C 180.879 395.666,182.341 396.339,182.184 397.768 L 182.070 398.800 199.409 398.800 L 216.747 398.800 216.873 397.713 C 217.038 396.301,219.023 395.631,220.963 396.332 C 221.720 396.606,224.597 396.800,227.902 396.800 L 233.547 396.800 233.673 395.716 L 233.800 394.633 239.200 394.616 C 244.538 394.600,244.600 394.590,244.568 393.700 C 244.537 392.820,244.633 392.800,248.868 392.800 L 253.200 392.800 253.200 391.800 L 253.200 390.800 257.800 390.750 C 260.330 390.723,262.625 390.678,262.900 390.650 C 263.175 390.623,263.457 390.105,263.527 389.500 C 263.646 388.462,263.767 388.400,265.673 388.400 C 267.527 388.400,267.675 388.331,267.474 387.561 C 267.105 386.149,267.532 385.594,268.660 386.023 C 270.880 386.867,274.000 386.503,274.000 385.400 C 274.000 384.467,274.133 384.400,276.000 384.400 C 277.855 384.400,278.000 384.329,278.000 383.421 C 278.000 382.522,278.172 382.432,280.100 382.321 C 281.929 382.216,282.216 382.084,282.328 381.300 C 282.447 380.459,282.650 380.400,285.428 380.400 L 288.400 380.400 288.400 379.200 C 288.400 378.133,288.533 378.000,289.600 378.000 C 290.613 378.000,290.800 377.844,290.800 377.000 C 290.800 376.067,290.933 376.000,292.800 376.000 C 294.667 376.000,294.800 375.933,294.800 375.000 C 294.800 373.995,295.656 373.730,298.100 373.979 C 298.603 374.030,298.800 373.762,298.800 373.025 C 298.800 372.049,298.910 371.998,301.100 371.954 C 302.365 371.928,303.085 371.825,302.700 371.724 C 302.315 371.624,302.000 371.380,302.000 371.183 C 302.000 370.986,302.270 370.929,302.600 371.055 C 303.016 371.215,303.200 371.028,303.200 370.443 C 303.200 369.810,303.450 369.600,304.200 369.600 C 305.000 369.600,305.200 369.400,305.200 368.600 C 305.200 367.667,305.333 367.600,307.200 367.600 C 309.067 367.600,309.200 367.533,309.200 366.600 C 309.200 365.655,309.320 365.600,311.400 365.600 C 313.480 365.600,313.600 365.545,313.600 364.600 C 313.600 363.800,313.800 363.600,314.600 363.600 C 315.400 363.600,315.600 363.400,315.600 362.600 C 315.600 361.800,315.800 361.600,316.600 361.600 C 317.444 361.600,317.600 361.413,317.600 360.400 C 317.600 359.387,317.756 359.200,318.600 359.200 C 319.400 359.200,319.600 359.000,319.600 358.200 C 319.600 357.255,319.720 357.200,321.800 357.200 C 323.880 357.200,324.000 357.145,324.000 356.200 C 324.000 355.400,324.200 355.200,325.000 355.200 C 325.800 355.200,326.000 355.000,326.000 354.200 C 326.000 353.400,326.200 353.200,327.000 353.200 C 327.794 353.200,328.000 352.999,328.000 352.221 C 328.000 351.322,328.172 351.232,330.100 351.121 C 332.059 351.008,332.209 350.926,332.327 349.900 C 332.426 349.036,332.662 348.800,333.427 348.800 C 334.198 348.800,334.400 348.593,334.400 347.800 C 334.400 347.000,334.600 346.800,335.400 346.800 C 336.200 346.800,336.400 346.600,336.400 345.800 C 336.400 345.000,336.600 344.800,337.400 344.800 C 338.193 344.800,338.400 344.598,338.400 343.827 C 338.400 343.062,338.636 342.826,339.500 342.727 C 340.277 342.637,340.637 342.343,340.725 341.725 C 340.802 341.179,341.179 340.802,341.725 340.725 C 342.343 340.637,342.637 340.277,342.727 339.500 C 342.826 338.636,343.062 338.400,343.827 338.400 C 344.598 338.400,344.800 338.193,344.800 337.400 C 344.800 336.600,345.000 336.400,345.800 336.400 C 346.600 336.400,346.800 336.200,346.800 335.400 C 346.800 334.600,347.000 334.400,347.800 334.400 C 348.593 334.400,348.800 334.198,348.800 333.427 C 348.800 332.662,349.036 332.426,349.900 332.327 C 350.688 332.236,351.036 331.944,351.128 331.300 C 351.198 330.805,351.423 330.378,351.628 330.350 C 351.833 330.322,352.225 330.278,352.500 330.250 C 352.813 330.219,353.045 329.414,353.121 328.100 C 353.232 326.172,353.322 326.000,354.221 326.000 C 354.999 326.000,355.200 325.794,355.200 325.000 C 355.200 324.200,355.400 324.000,356.200 324.000 C 357.145 324.000,357.200 323.880,357.200 321.800 C 357.200 319.720,357.255 319.600,358.200 319.600 C 359.000 319.600,359.200 319.400,359.200 318.600 C 359.200 317.756,359.387 317.600,360.400 317.600 C 361.413 317.600,361.600 317.444,361.600 316.600 C 361.600 315.800,361.800 315.600,362.600 315.600 C 363.400 315.600,363.600 315.400,363.600 314.600 C 363.600 313.800,363.800 313.600,364.600 313.600 C 365.545 313.600,365.600 313.480,365.600 311.400 C 365.600 309.320,365.655 309.200,366.600 309.200 C 367.533 309.200,367.600 309.067,367.600 307.200 C 367.600 305.333,367.667 305.200,368.600 305.200 C 369.400 305.200,369.600 305.000,369.600 304.200 C 369.600 303.450,369.810 303.200,370.443 303.200 C 371.028 303.200,371.215 303.016,371.055 302.600 C 370.929 302.270,370.986 302.000,371.183 302.000 C 371.380 302.000,371.624 302.315,371.724 302.700 C 371.825 303.085,371.928 302.365,371.954 301.100 C 371.998 298.910,372.049 298.800,373.025 298.800 C 373.762 298.800,374.030 298.603,373.979 298.100 C 373.730 295.656,373.995 294.800,375.000 294.800 C 375.933 294.800,376.000 294.667,376.000 292.800 C 376.000 290.933,376.067 290.800,377.000 290.800 C 377.844 290.800,378.000 290.613,378.000 289.600 C 378.000 288.533,378.133 288.400,379.200 288.400 L 380.400 288.400 380.400 285.428 C 380.400 282.650,380.459 282.447,381.300 282.328 C 382.084 282.216,382.216 281.929,382.321 280.100 C 382.432 278.172,382.522 278.000,383.421 278.000 C 384.329 278.000,384.400 277.855,384.400 276.000 C 384.400 274.133,384.467 274.000,385.400 274.000 C 386.503 274.000,386.867 270.880,386.023 268.660 C 385.594 267.532,386.149 267.105,387.561 267.474 C 388.331 267.675,388.400 267.527,388.400 265.673 C 388.400 263.767,388.462 263.646,389.500 263.527 C 390.105 263.457,390.623 263.175,390.650 262.900 C 390.678 262.625,390.723 260.330,390.750 257.800 L 390.800 253.200 391.800 253.200 L 392.800 253.200 392.800 248.868 C 392.800 244.633,392.820 244.537,393.700 244.568 C 394.590 244.600,394.600 244.538,394.616 239.200 L 394.633 233.800 395.716 233.673 L 396.800 233.547 396.800 227.754 C 396.800 223.420,396.651 221.672,396.208 220.815 C 395.500 219.446,396.331 218.014,397.900 217.897 L 398.800 217.830 398.800 199.950 L 398.800 182.070 397.768 182.184 C 396.339 182.341,395.666 180.879,396.327 179.052 C 396.607 178.277,396.800 175.440,396.800 172.098 L 396.800 166.453 395.710 166.327 L 394.619 166.200 394.709 160.700 C 394.795 155.515,394.756 155.200,394.033 155.200 C 393.612 155.200,393.176 155.425,393.065 155.700 C 392.887 156.141,392.607 147.940,392.769 147.050 C 392.804 146.858,392.376 146.788,391.817 146.895 L 390.800 147.089 390.800 142.225 C 390.800 137.205,390.568 136.400,389.120 136.400 C 388.528 136.400,388.400 136.063,388.400 134.496 C 388.400 132.614,388.385 132.592,387.100 132.596 C 386.137 132.599,385.843 132.444,385.964 132.000 C 386.734 129.191,386.470 126.000,385.467 126.000 C 384.530 126.000,384.434 125.840,384.322 124.100 C 384.219 122.492,384.065 122.181,383.320 122.075 C 382.561 121.967,382.424 121.663,382.320 119.875 C 382.216 118.071,382.082 117.783,381.300 117.672 C 380.489 117.557,380.395 117.310,380.350 115.172 C 380.278 111.748,380.301 111.812,379.100 111.673 C 378.236 111.574,378.000 111.338,378.000 110.573 C 378.000 110.038,377.820 109.578,377.600 109.550 C 377.380 109.522,376.975 109.478,376.700 109.450 C 376.387 109.419,376.155 108.614,376.079 107.300 C 375.968 105.372,375.878 105.200,374.979 105.200 C 374.029 105.200,373.705 104.222,373.963 102.130 C 373.995 101.872,373.809 101.529,373.549 101.368 C 373.242 101.179,373.183 101.249,373.380 101.568 C 373.602 101.927,373.458 101.918,372.842 101.533 C 372.081 101.058,371.643 98.780,371.975 97.032 C 372.014 96.830,371.765 96.897,371.423 97.181 C 371.002 97.530,370.800 97.552,370.800 97.249 C 370.800 97.002,370.575 96.845,370.300 96.900 C 370.019 96.956,369.745 96.519,369.673 95.900 C 369.574 95.036,369.338 94.800,368.573 94.800 C 367.672 94.800,367.600 94.652,367.600 92.800 C 367.600 90.933,367.533 90.800,366.600 90.800 C 365.867 90.800,365.600 90.587,365.600 90.000 C 365.600 89.478,365.333 89.200,364.833 89.200 C 363.260 89.200,362.820 88.800,363.223 87.740 C 363.967 85.782,363.710 84.400,362.600 84.400 C 361.863 84.400,361.600 84.187,361.600 83.590 C 361.600 83.010,361.259 82.712,360.400 82.540 C 359.471 82.354,359.200 82.086,359.200 81.350 C 359.200 80.603,358.986 80.400,358.200 80.400 C 357.255 80.400,357.200 80.280,357.200 78.200 C 357.200 76.120,357.145 76.000,356.200 76.000 C 355.400 76.000,355.200 75.800,355.200 75.000 C 355.200 74.200,355.000 74.000,354.200 74.000 C 353.270 74.000,353.200 73.864,353.200 72.043 C 353.200 70.290,353.096 70.061,352.200 69.836 C 351.549 69.672,351.200 69.305,351.200 68.782 C 351.200 68.211,350.855 67.911,350.000 67.740 C 349.071 67.554,348.800 67.286,348.800 66.550 C 348.800 65.803,348.586 65.600,347.800 65.600 C 347.000 65.600,346.800 65.400,346.800 64.600 C 346.800 63.800,346.600 63.600,345.800 63.600 C 345.000 63.600,344.800 63.400,344.800 62.600 C 344.800 61.807,344.598 61.600,343.827 61.600 C 343.062 61.600,342.826 61.364,342.727 60.500 C 342.657 59.895,342.375 59.377,342.100 59.350 C 341.825 59.323,341.433 59.278,341.228 59.250 C 341.023 59.223,340.798 58.795,340.728 58.300 C 340.636 57.656,340.288 57.364,339.500 57.273 C 338.636 57.174,338.400 56.938,338.400 56.173 C 338.400 55.402,338.193 55.200,337.400 55.200 C 336.600 55.200,336.400 55.000,336.400 54.200 C 336.400 53.400,336.200 53.200,335.400 53.200 C 334.600 53.200,334.400 53.000,334.400 52.200 C 334.400 51.400,334.200 51.200,333.400 51.200 C 332.602 51.200,332.400 50.999,332.400 50.208 C 332.400 49.492,332.131 49.148,331.435 48.973 C 330.860 48.829,330.371 48.340,330.227 47.765 C 330.011 46.907,329.765 46.800,327.992 46.800 C 326.134 46.800,326.000 46.733,326.000 45.800 C 326.000 45.000,325.800 44.800,325.000 44.800 C 324.200 44.800,324.000 44.600,324.000 43.800 C 324.000 42.855,323.880 42.800,321.800 42.800 C 319.720 42.800,319.600 42.745,319.600 41.800 C 319.600 41.000,319.400 40.800,318.600 40.800 C 317.800 40.800,317.600 40.600,317.600 39.800 C 317.600 38.855,317.257 38.620,316.100 38.770 C 315.795 38.810,315.600 38.360,315.600 37.618 C 315.600 36.585,315.448 36.400,314.600 36.400 C 313.800 36.400,313.600 36.200,313.600 35.400 C 313.600 34.455,313.480 34.400,311.400 34.400 C 309.320 34.400,309.200 34.345,309.200 33.400 C 309.200 32.467,309.067 32.400,307.200 32.400 C 305.333 32.400,305.200 32.333,305.200 31.400 C 305.200 30.600,305.000 30.400,304.200 30.400 C 303.366 30.400,303.200 30.210,303.200 29.255 C 303.200 28.336,303.022 28.108,302.300 28.103 C 298.926 28.079,298.800 28.038,298.800 26.971 C 298.800 26.150,298.619 25.957,297.900 26.016 C 295.389 26.219,294.800 26.026,294.800 25.000 C 294.800 24.069,294.665 24.000,292.828 24.000 C 291.087 24.000,290.841 23.894,290.728 23.100 C 290.636 22.456,290.288 22.164,289.500 22.073 C 288.648 21.975,288.400 21.735,288.400 21.007 C 288.400 19.814,287.964 19.676,284.932 19.912 L 282.463 20.104 282.332 18.952 C 282.207 17.864,282.084 17.793,280.100 17.679 C 278.172 17.568,278.000 17.478,278.000 16.579 C 278.000 15.671,277.855 15.600,276.000 15.600 C 274.133 15.600,274.000 15.533,274.000 14.600 C 274.000 13.367,270.092 13.100,268.489 14.223 C 267.669 14.797,267.595 14.789,267.539 14.123 C 267.506 13.725,267.436 13.220,267.385 13.000 C 267.334 12.780,267.272 12.375,267.246 12.100 C 267.217 11.782,266.554 11.600,265.427 11.600 C 263.789 11.600,263.643 11.516,263.527 10.500 C 263.384 9.257,263.717 9.325,257.400 9.250 C 253.259 9.201,253.200 9.187,253.200 8.249 C 253.200 7.315,253.129 7.297,249.128 7.228 C 244.541 7.149,244.394 7.109,244.684 6.000 C 244.923 5.087,243.424 4.810,243.065 5.700 C 242.904 6.100,242.857 6.100,242.832 5.700 C 242.795 5.127,236.765 5.029,235.400 5.579 C 234.376 5.991,233.600 5.376,233.600 4.151 L 233.600 3.200 227.786 3.200 C 223.175 3.200,221.773 3.330,221.013 3.828 C 219.672 4.707,218.400 4.004,218.400 2.386 L 218.400 1.200 200.000 1.200 L 181.600 1.200 181.600 2.351 M209.800 10.794 C 212.000 10.964,214.520 11.292,215.400 11.521 C 216.280 11.751,219.839 12.131,223.308 12.366 C 227.590 12.655,229.908 12.983,230.522 13.385 C 231.019 13.711,232.770 14.088,234.413 14.223 C 236.056 14.357,238.660 14.890,240.200 15.407 C 241.740 15.925,243.990 16.460,245.200 16.598 C 246.410 16.735,247.778 17.094,248.241 17.394 C 248.703 17.695,250.466 18.133,252.157 18.369 C 253.849 18.604,255.721 19.042,256.317 19.342 C 256.912 19.642,258.030 19.984,258.800 20.103 C 259.570 20.221,261.190 20.769,262.400 21.321 C 263.610 21.872,265.410 22.537,266.400 22.798 C 267.390 23.059,268.761 23.617,269.447 24.037 C 270.133 24.456,270.914 24.800,271.181 24.800 C 271.699 24.800,276.948 27.305,277.734 27.927 C 277.990 28.130,278.904 28.523,279.764 28.800 C 281.752 29.441,285.879 31.481,286.183 31.973 C 286.311 32.179,287.392 32.632,288.587 32.979 C 289.782 33.326,290.873 33.794,291.011 34.018 C 291.150 34.242,292.038 34.790,292.986 35.235 C 293.934 35.681,295.421 36.654,296.290 37.399 C 297.160 38.143,298.331 38.868,298.892 39.009 C 299.453 39.149,300.291 39.700,300.753 40.232 C 301.216 40.765,301.821 41.203,302.097 41.206 C 302.374 41.209,303.500 41.847,304.600 42.623 C 305.700 43.398,307.455 44.581,308.500 45.251 C 309.545 45.921,310.400 46.633,310.400 46.834 C 310.400 47.035,310.672 47.200,311.004 47.200 C 311.336 47.200,312.191 47.731,312.904 48.379 C 313.617 49.028,314.700 49.973,315.312 50.479 C 315.923 50.986,316.739 51.677,317.126 52.015 C 317.513 52.353,318.498 53.042,319.315 53.547 C 320.132 54.052,320.800 54.599,320.800 54.762 C 320.800 55.034,323.602 57.368,325.992 59.087 C 326.538 59.479,328.608 61.458,330.592 63.485 C 334.179 67.149,335.539 68.515,338.600 71.525 C 339.480 72.390,340.512 73.526,340.893 74.049 C 342.612 76.408,344.968 79.200,345.238 79.200 C 345.401 79.200,345.948 79.868,346.453 80.685 C 346.958 81.502,347.647 82.487,347.985 82.874 C 348.323 83.261,349.014 84.077,349.521 84.688 C 350.027 85.300,350.972 86.383,351.621 87.096 C 352.269 87.809,352.800 88.658,352.800 88.982 C 352.800 89.307,353.146 89.757,353.568 89.983 C 353.990 90.209,354.544 91.025,354.799 91.797 C 355.054 92.569,355.418 93.200,355.610 93.200 C 355.953 93.200,358.180 96.411,359.250 98.448 C 360.789 101.379,361.626 102.769,361.985 102.990 C 362.597 103.369,365.074 107.280,365.410 108.400 C 365.575 108.950,366.033 109.813,366.427 110.319 C 366.822 110.824,367.257 111.750,367.395 112.377 C 367.533 113.004,367.992 113.830,368.415 114.213 C 368.838 114.596,369.304 115.560,369.450 116.355 C 369.596 117.150,369.841 117.890,369.993 118.000 C 370.361 118.264,375.047 127.923,375.414 129.172 C 375.571 129.707,376.037 130.697,376.448 131.372 C 376.860 132.048,377.198 132.845,377.199 133.144 C 377.199 133.444,377.804 135.244,378.543 137.144 C 380.253 141.546,381.458 145.652,381.787 148.200 C 381.929 149.300,382.380 151.100,382.788 152.200 C 383.197 153.300,383.707 155.280,383.922 156.600 C 384.136 157.920,384.609 159.789,384.973 160.754 C 385.336 161.719,385.744 163.939,385.879 165.687 C 386.017 167.483,386.355 169.097,386.654 169.397 C 386.997 169.740,387.328 171.881,387.590 175.464 C 388.116 182.627,388.428 185.306,388.797 185.800 C 390.123 187.575,389.877 209.375,388.454 216.200 C 388.224 217.300,387.847 220.864,387.615 224.119 C 387.356 227.752,386.981 230.378,386.644 230.919 C 386.342 231.404,385.987 233.179,385.856 234.865 C 385.724 236.550,385.261 238.832,384.826 239.934 C 384.391 241.037,383.913 242.898,383.762 244.070 C 383.612 245.241,383.170 247.021,382.780 248.024 C 382.391 249.026,381.954 250.736,381.810 251.824 C 381.504 254.136,380.264 258.559,379.125 261.400 C 378.684 262.500,378.008 264.390,377.623 265.600 C 377.237 266.810,376.535 268.517,376.061 269.394 C 375.588 270.271,375.200 271.303,375.200 271.689 C 375.200 272.074,374.407 273.823,373.437 275.576 C 372.467 277.329,371.451 279.439,371.178 280.266 C 370.531 282.227,368.791 285.691,368.198 286.200 C 367.941 286.420,367.504 287.410,367.226 288.400 C 366.948 289.390,366.498 290.470,366.225 290.800 C 365.952 291.130,365.061 292.615,364.245 294.100 C 363.429 295.585,362.580 296.800,362.358 296.800 C 362.136 296.800,361.599 297.604,361.164 298.588 C 360.729 299.571,360.155 300.516,359.887 300.688 C 359.619 300.859,358.950 301.885,358.400 302.966 C 356.712 306.283,356.352 306.843,355.766 307.068 C 355.455 307.188,355.200 307.519,355.200 307.805 C 355.200 308.091,354.570 309.078,353.800 310.000 C 353.030 310.922,352.400 311.858,352.400 312.082 C 352.400 312.305,351.635 313.255,350.700 314.192 C 349.765 315.129,348.820 316.162,348.600 316.488 C 347.312 318.396,345.486 320.604,344.797 321.087 C 344.358 321.394,344.000 321.884,344.000 322.177 C 344.000 322.469,343.550 323.003,343.000 323.363 C 342.450 323.724,342.000 324.261,342.000 324.558 C 342.000 324.855,341.190 325.845,340.200 326.757 C 339.210 327.670,338.400 328.525,338.400 328.659 C 338.400 328.865,330.015 337.245,328.362 338.691 C 328.053 338.962,327.170 339.816,326.400 340.589 C 325.630 341.363,324.779 341.997,324.509 341.998 C 324.239 341.999,323.724 342.450,323.363 343.000 C 323.003 343.550,322.469 344.000,322.177 344.000 C 321.884 344.000,321.394 344.358,321.087 344.797 C 320.598 345.495,318.268 347.417,316.475 348.600 C 316.141 348.820,315.098 349.765,314.157 350.700 C 313.216 351.635,312.273 352.400,312.061 352.400 C 311.849 352.400,310.922 353.030,310.000 353.800 C 309.078 354.570,308.091 355.200,307.805 355.200 C 307.519 355.200,307.188 355.455,307.068 355.766 C 306.843 356.352,306.283 356.712,302.966 358.400 C 301.885 358.950,300.849 359.638,300.663 359.930 C 300.478 360.221,299.533 360.800,298.563 361.216 C 297.594 361.631,296.800 362.120,296.800 362.301 C 296.800 362.483,295.765 363.235,294.500 363.973 C 293.235 364.711,291.734 365.633,291.164 366.022 C 290.594 366.411,289.334 366.955,288.364 367.230 C 287.394 367.506,286.419 367.946,286.197 368.209 C 285.688 368.814,282.748 370.264,280.400 371.070 C 279.410 371.409,278.420 371.831,278.200 372.008 C 277.279 372.747,272.235 375.200,271.637 375.200 C 271.280 375.200,270.281 375.579,269.416 376.042 C 266.686 377.506,254.908 381.386,252.070 381.757 C 250.898 381.910,249.098 382.363,248.070 382.762 C 247.041 383.162,245.241 383.612,244.070 383.762 C 242.898 383.913,241.027 384.395,239.912 384.835 C 238.797 385.274,236.425 385.740,234.642 385.870 C 232.856 386.000,231.124 386.345,230.786 386.637 C 230.392 386.979,227.532 387.393,222.786 387.796 C 218.724 388.141,214.950 388.587,214.400 388.786 C 213.850 388.985,211.780 389.243,209.800 389.358 C 207.820 389.473,205.215 389.691,204.012 389.843 C 201.561 390.152,187.043 389.317,185.800 388.795 C 184.825 388.387,182.669 388.137,175.476 387.599 C 172.193 387.354,169.596 386.965,169.076 386.640 C 168.594 386.340,166.894 385.982,165.297 385.844 C 163.700 385.706,161.630 385.305,160.697 384.953 C 159.764 384.600,157.920 384.136,156.600 383.922 C 155.280 383.707,153.255 383.170,152.101 382.728 C 150.946 382.286,149.236 381.844,148.301 381.747 C 145.964 381.503,141.279 380.159,137.144 378.547 C 135.244 377.806,133.481 377.200,133.226 377.200 C 132.972 377.200,131.918 376.750,130.885 376.200 C 129.852 375.650,128.800 375.200,128.549 375.200 C 128.297 375.200,126.548 374.399,124.662 373.421 C 122.776 372.443,120.503 371.423,119.612 371.156 C 118.720 370.889,117.791 370.430,117.546 370.135 C 117.302 369.841,116.907 369.600,116.669 369.600 C 116.432 369.600,114.541 368.745,112.468 367.700 C 107.214 365.052,106.828 364.832,104.800 363.329 C 103.810 362.595,102.235 361.643,101.300 361.212 C 100.365 360.781,99.600 360.250,99.600 360.033 C 99.600 359.815,98.835 359.263,97.900 358.805 C 94.359 357.070,93.200 356.382,93.200 356.016 C 93.200 355.808,92.586 355.346,91.836 354.990 C 91.086 354.635,90.158 353.996,89.774 353.572 C 89.390 353.147,88.879 352.800,88.637 352.800 C 88.396 352.800,87.119 351.820,85.799 350.622 C 82.346 347.488,82.307 347.455,80.785 346.508 C 80.023 346.034,79.173 345.275,78.897 344.823 C 78.620 344.370,78.197 344.000,77.957 344.000 C 77.717 344.000,77.013 343.505,76.393 342.900 C 74.392 340.948,73.739 340.400,73.415 340.400 C 73.019 340.400,60.091 327.317,59.000 325.811 C 58.560 325.204,57.705 324.206,57.100 323.593 C 56.495 322.980,56.000 322.288,56.000 322.054 C 56.000 321.820,55.656 321.444,55.236 321.219 C 54.815 320.994,54.057 320.139,53.550 319.320 C 53.044 318.500,52.353 317.526,52.015 317.156 C 51.677 316.785,50.950 315.935,50.400 315.266 C 49.850 314.598,48.905 313.501,48.300 312.829 C 47.695 312.157,47.200 311.336,47.200 311.004 C 47.200 310.672,47.035 310.400,46.833 310.400 C 46.631 310.400,46.053 309.725,45.549 308.900 C 45.046 308.075,44.399 307.220,44.113 307.000 C 43.579 306.589,42.550 304.861,41.377 302.407 C 41.011 301.640,40.392 300.789,40.001 300.516 C 39.611 300.242,39.172 299.541,39.025 298.958 C 38.879 298.375,38.193 297.223,37.501 296.399 C 36.174 294.818,34.439 291.941,33.401 289.600 C 33.060 288.830,32.600 287.930,32.380 287.600 C 32.160 287.270,31.612 286.190,31.162 285.200 C 30.712 284.210,29.196 281.060,27.794 278.200 C 26.392 275.340,25.050 272.243,24.812 271.317 C 24.573 270.391,24.206 269.527,23.994 269.397 C 23.783 269.266,23.317 268.133,22.959 266.880 C 22.600 265.626,21.860 263.610,21.313 262.400 C 20.766 261.190,20.221 259.570,20.103 258.800 C 19.984 258.030,19.642 256.912,19.342 256.317 C 19.042 255.721,18.604 253.849,18.369 252.157 C 18.133 250.466,17.691 248.700,17.385 248.233 C 17.079 247.766,16.708 246.308,16.560 244.992 C 16.412 243.676,15.892 241.520,15.405 240.200 C 14.919 238.880,14.394 236.384,14.239 234.654 C 14.085 232.924,13.697 231.109,13.377 230.621 C 12.983 230.020,12.659 227.618,12.372 223.167 C 12.128 219.381,11.675 215.753,11.302 214.600 C 10.413 211.847,10.282 187.558,11.149 186.035 C 11.480 185.453,11.916 182.285,12.249 178.035 C 12.562 174.045,13.054 170.394,13.385 169.600 C 13.706 168.830,14.148 166.630,14.368 164.711 C 14.588 162.792,15.045 160.687,15.382 160.034 C 15.720 159.381,16.178 157.566,16.400 156.000 C 16.622 154.434,17.072 152.634,17.400 152.000 C 17.728 151.365,18.167 149.645,18.375 148.177 C 18.823 145.013,19.759 141.901,22.400 134.800 C 24.393 129.443,27.096 123.319,27.942 122.248 C 28.136 122.002,28.526 121.087,28.807 120.216 C 29.088 119.344,29.741 117.788,30.259 116.758 C 30.776 115.727,31.200 114.783,31.200 114.660 C 31.200 114.536,31.650 113.772,32.200 112.962 C 32.750 112.151,33.200 111.266,33.200 110.995 C 33.200 110.347,36.675 104.483,37.819 103.200 C 38.309 102.650,38.834 101.789,38.986 101.286 C 39.138 100.784,39.593 100.064,39.997 99.686 C 40.401 99.309,41.399 97.742,42.214 96.204 C 43.029 94.667,44.034 93.171,44.448 92.882 C 44.861 92.592,45.200 92.114,45.200 91.819 C 45.200 91.525,45.647 90.860,46.193 90.342 C 46.739 89.824,47.189 89.173,47.193 88.896 C 47.197 88.619,47.731 87.809,48.379 87.096 C 49.028 86.383,49.973 85.303,50.479 84.695 C 50.986 84.088,51.895 83.046,52.500 82.381 C 53.105 81.716,53.600 81.005,53.600 80.800 C 53.600 80.594,54.185 79.820,54.900 79.078 C 56.605 77.308,59.295 74.116,59.800 73.263 C 60.143 72.683,64.339 68.523,73.127 60.050 C 74.296 58.923,75.430 58.000,75.646 58.000 C 75.863 58.000,76.706 57.346,77.520 56.546 C 78.334 55.746,80.080 54.217,81.400 53.149 C 85.053 50.191,85.693 49.655,87.096 48.379 C 87.809 47.731,88.619 47.197,88.896 47.193 C 89.173 47.189,89.824 46.739,90.342 46.193 C 90.860 45.647,91.478 45.200,91.716 45.200 C 91.954 45.200,92.558 44.815,93.059 44.344 C 94.089 43.377,95.043 42.786,97.524 41.580 C 98.472 41.119,99.340 40.501,99.453 40.207 C 99.565 39.914,100.230 39.448,100.929 39.173 C 101.628 38.898,102.650 38.280,103.200 37.800 C 104.920 36.299,110.181 33.365,112.133 32.819 C 113.160 32.531,114.000 32.144,114.000 31.959 C 114.000 31.555,118.042 29.507,120.236 28.800 C 121.096 28.523,122.002 28.136,122.248 27.942 C 123.319 27.096,129.443 24.393,134.800 22.400 C 141.901 19.759,145.013 18.823,148.177 18.375 C 149.645 18.167,151.358 17.732,151.983 17.409 C 152.608 17.085,154.443 16.609,156.060 16.350 C 157.677 16.092,159.505 15.627,160.122 15.318 C 160.739 15.009,162.899 14.564,164.922 14.328 C 166.945 14.093,169.089 13.651,169.687 13.347 C 170.336 13.016,173.313 12.624,177.087 12.371 C 180.559 12.140,184.030 11.751,184.800 11.508 C 187.658 10.607,202.063 10.196,209.800 10.794 " stroke="none" fill="#4389c5" fill-rule="evenodd"></path><path id="path2" d="M190.800 75.591 C 190.293 75.911,190.182 77.801,190.083 87.738 C 189.952 100.954,190.152 100.127,186.800 101.288 C 185.810 101.630,183.380 102.135,181.400 102.410 C 179.420 102.685,177.027 103.238,176.083 103.640 C 175.138 104.042,173.714 104.493,172.917 104.642 C 172.120 104.792,170.842 105.338,170.078 105.857 C 169.314 106.376,168.379 106.800,168.000 106.800 C 167.621 106.800,166.623 107.267,165.782 107.838 C 164.941 108.409,163.881 109.051,163.426 109.266 C 162.972 109.480,161.786 110.138,160.792 110.728 C 159.797 111.318,158.368 112.160,157.617 112.600 C 156.273 113.387,155.228 114.309,153.956 115.830 C 153.602 116.254,152.792 117.056,152.156 117.614 C 149.885 119.605,145.630 125.272,144.393 127.952 C 143.948 128.915,143.138 130.234,142.592 130.882 C 142.046 131.531,141.599 132.453,141.597 132.931 C 141.596 133.409,141.244 134.332,140.816 134.981 C 140.388 135.631,139.916 137.161,139.768 138.381 C 139.619 139.602,139.275 141.050,139.002 141.600 C 137.109 145.412,138.616 165.429,141.020 168.400 C 141.287 168.730,141.638 169.450,141.801 170.000 C 142.997 174.054,152.346 185.407,156.774 188.183 C 158.108 189.020,159.200 189.857,159.200 190.042 C 159.200 190.228,159.785 190.682,160.500 191.052 C 161.923 191.787,164.920 194.020,165.135 194.504 C 165.209 194.671,166.154 195.188,167.235 195.653 C 168.316 196.118,169.200 196.634,169.200 196.799 C 169.200 196.965,169.770 197.214,170.467 197.353 C 171.163 197.493,172.321 198.055,173.040 198.603 C 173.759 199.151,174.521 199.600,174.734 199.600 C 175.184 199.600,180.989 202.529,181.711 203.121 C 181.980 203.341,182.959 203.725,183.887 203.973 C 184.814 204.221,185.714 204.663,185.887 204.955 C 186.059 205.248,186.920 205.718,187.800 206.002 C 188.680 206.285,189.803 206.830,190.297 207.213 C 190.790 207.596,191.864 208.035,192.683 208.189 C 193.503 208.343,194.629 208.790,195.186 209.182 C 195.744 209.575,197.460 210.433,199.000 211.090 C 200.540 211.746,203.029 212.805,204.530 213.442 C 206.032 214.079,207.562 214.877,207.930 215.215 C 208.299 215.553,209.843 216.523,211.363 217.370 C 218.234 221.199,223.855 225.881,225.787 229.384 C 229.340 235.824,228.881 240.927,224.160 247.471 C 223.243 248.742,217.657 252.411,216.226 252.682 C 215.552 252.810,214.460 253.189,213.800 253.524 C 212.709 254.078,211.495 254.411,206.000 255.660 C 202.157 256.534,193.344 256.522,187.531 255.635 C 184.523 255.176,181.193 254.794,180.131 254.786 C 177.898 254.770,173.798 253.952,172.526 253.269 C 172.046 253.011,170.769 252.800,169.690 252.800 C 168.610 252.800,166.844 252.515,165.764 252.167 C 164.684 251.819,161.910 251.024,159.600 250.400 C 154.580 249.044,150.822 247.720,150.000 247.019 C 149.670 246.738,148.939 246.398,148.375 246.265 C 147.812 246.132,146.822 245.568,146.175 245.012 C 145.529 244.456,144.806 244.001,144.569 244.000 C 144.331 244.000,143.341 243.476,142.369 242.836 C 141.396 242.196,140.060 241.611,139.400 241.536 L 138.200 241.400 138.096 257.849 L 137.991 274.298 139.296 275.271 C 140.849 276.429,144.847 278.400,145.643 278.400 C 145.953 278.400,147.052 278.850,148.085 279.400 C 149.118 279.950,150.377 280.404,150.882 280.409 C 151.387 280.414,152.601 280.781,153.580 281.225 C 154.559 281.669,156.179 282.206,157.180 282.418 C 158.181 282.630,160.170 283.237,161.600 283.767 C 163.030 284.297,166.000 284.940,168.200 285.196 C 170.400 285.451,173.775 285.917,175.700 286.230 C 177.625 286.544,181.270 286.800,183.800 286.800 C 190.518 286.800,190.000 285.649,190.000 300.567 C 190.000 307.259,190.109 313.019,190.243 313.367 C 190.530 314.116,209.339 314.345,209.796 313.606 C 209.930 313.389,210.027 307.558,210.011 300.649 L 209.983 288.085 211.210 287.053 C 212.579 285.901,213.949 285.480,218.546 284.799 C 220.276 284.542,222.436 284.016,223.346 283.629 C 224.256 283.242,225.791 282.801,226.758 282.648 C 227.725 282.496,229.003 282.025,229.598 281.602 C 230.193 281.178,231.440 280.660,232.369 280.452 C 233.297 280.243,234.359 279.804,234.729 279.476 C 235.098 279.148,236.089 278.595,236.931 278.247 C 237.773 277.900,239.267 277.072,240.251 276.408 C 241.235 275.743,242.183 275.200,242.358 275.200 C 242.533 275.200,243.018 274.822,243.437 274.359 C 243.856 273.897,244.739 273.239,245.399 272.899 C 246.522 272.320,251.994 266.893,251.998 266.355 C 252.000 266.091,254.019 263.384,254.948 262.400 C 255.259 262.070,255.797 261.119,256.143 260.286 C 256.488 259.453,257.043 258.500,257.375 258.168 C 257.707 257.836,258.167 256.897,258.396 256.082 C 258.625 255.267,259.080 254.251,259.406 253.824 C 259.733 253.396,260.000 252.468,260.000 251.759 C 260.000 251.051,260.362 249.330,260.805 247.936 C 262.555 242.422,262.739 230.925,261.161 225.658 C 260.743 224.260,260.399 222.730,260.398 222.258 C 260.398 221.786,259.858 220.320,259.200 219.000 C 258.542 217.680,258.002 216.307,258.002 215.949 C 258.001 215.591,257.702 215.051,257.338 214.749 C 256.974 214.447,256.436 213.627,256.143 212.926 C 255.850 212.225,255.201 211.055,254.700 210.326 C 253.781 208.988,253.424 208.542,250.700 205.323 C 249.875 204.349,249.200 203.403,249.200 203.222 C 249.200 203.041,248.827 202.796,248.370 202.676 C 247.914 202.557,247.454 202.129,247.348 201.724 C 247.243 201.320,246.671 200.677,246.078 200.294 C 244.377 199.198,242.255 197.672,241.600 197.076 C 241.270 196.776,240.704 196.424,240.342 196.294 C 239.981 196.164,238.596 195.230,237.266 194.218 C 235.936 193.207,234.252 192.112,233.524 191.785 C 232.796 191.458,230.400 190.210,228.200 189.013 C 226.000 187.815,223.570 186.628,222.800 186.374 C 222.030 186.120,219.020 184.762,216.112 183.356 C 213.204 181.950,210.629 180.800,210.391 180.800 C 210.153 180.800,209.293 180.440,208.479 180.001 C 206.158 178.746,199.506 175.725,198.400 175.424 C 197.356 175.139,193.438 173.400,192.400 172.760 C 192.070 172.556,190.996 172.022,190.013 171.572 C 189.030 171.122,187.416 170.089,186.426 169.277 C 185.437 168.465,183.991 167.507,183.213 167.148 C 175.606 163.639,170.609 153.550,172.525 145.567 C 173.823 140.160,179.996 134.255,186.031 132.648 C 187.224 132.330,188.920 131.743,189.800 131.342 C 192.453 130.134,213.615 130.240,217.000 131.478 C 218.320 131.960,220.750 132.564,222.400 132.820 C 226.967 133.527,236.609 136.428,239.600 137.995 C 240.370 138.398,242.530 139.409,244.400 140.241 C 246.270 141.074,248.116 142.019,248.502 142.341 C 249.735 143.371,249.798 142.635,249.917 125.822 L 250.033 109.311 248.717 108.772 C 247.992 108.476,247.167 108.006,246.882 107.727 C 246.597 107.449,245.607 107.020,244.682 106.774 C 243.757 106.528,242.460 106.006,241.800 105.614 C 241.140 105.223,239.818 104.784,238.863 104.640 C 237.908 104.497,236.468 104.049,235.663 103.646 C 234.792 103.209,232.824 102.808,230.800 102.654 C 228.930 102.512,226.410 102.113,225.200 101.768 C 223.990 101.422,220.405 100.982,217.234 100.789 C 209.498 100.319,210.218 101.644,210.115 87.692 C 210.039 77.332,209.963 76.162,209.339 75.706 C 208.501 75.093,191.753 74.989,190.800 75.591 " stroke="none" fill="#fafbfc" fill-rule="evenodd"></path><path id="path3" d="M190.929 73.465 C 189.068 73.856,189.011 74.219,188.800 87.161 L 188.600 99.400 185.400 100.027 C 183.640 100.372,181.840 100.844,181.400 101.077 C 180.960 101.309,179.535 101.629,178.234 101.787 C 176.932 101.945,175.402 102.401,174.834 102.801 C 174.265 103.201,172.958 103.644,171.928 103.784 C 170.899 103.925,169.639 104.368,169.128 104.768 C 168.618 105.168,167.598 105.627,166.863 105.788 C 166.127 105.949,165.164 106.495,164.723 107.003 C 164.281 107.511,163.304 108.042,162.551 108.183 C 161.797 108.324,160.363 109.016,159.364 109.720 C 158.364 110.424,156.974 111.360,156.273 111.800 C 155.573 112.240,153.782 113.860,152.293 115.400 C 150.805 116.940,149.050 118.749,148.393 119.420 C 147.737 120.092,147.200 120.829,147.200 121.058 C 147.200 121.288,146.840 121.802,146.400 122.200 C 145.960 122.598,145.600 123.139,145.600 123.403 C 145.600 123.666,145.060 124.446,144.400 125.137 C 143.740 125.828,143.200 126.741,143.200 127.168 C 143.200 127.594,142.928 128.215,142.595 128.548 C 141.575 129.568,139.269 134.222,138.974 135.856 C 138.821 136.705,138.558 137.580,138.389 137.800 C 137.669 138.742,137.072 141.706,136.741 146.000 C 136.048 154.962,136.788 163.604,138.329 164.556 C 138.537 164.685,138.834 165.647,138.988 166.695 C 139.142 167.743,139.591 168.960,139.985 169.400 C 140.379 169.840,140.926 170.920,141.201 171.800 C 141.476 172.680,141.926 173.670,142.201 174.000 C 142.475 174.330,142.947 175.078,143.250 175.662 C 143.552 176.247,144.556 177.597,145.479 178.662 C 146.403 179.728,147.805 181.410,148.595 182.400 C 151.317 185.809,155.900 190.000,156.907 190.000 C 157.163 190.000,157.738 190.355,158.186 190.789 C 159.883 192.435,161.923 194.000,162.371 194.000 C 162.627 194.000,163.264 194.427,163.786 194.949 C 164.308 195.471,166.144 196.591,167.867 197.439 C 169.590 198.286,171.347 199.296,171.771 199.685 C 172.194 200.073,172.914 200.504,173.371 200.643 C 173.827 200.781,174.497 201.155,174.860 201.473 C 175.223 201.791,176.431 202.292,177.546 202.586 C 178.661 202.880,180.053 203.498,180.640 203.960 C 181.227 204.422,182.019 204.800,182.400 204.800 C 182.781 204.800,183.562 205.169,184.135 205.621 C 184.709 206.072,185.993 206.719,186.989 207.058 C 187.985 207.398,188.800 207.820,188.800 207.998 C 188.800 208.175,189.745 208.538,190.900 208.805 C 192.055 209.071,193.195 209.532,193.433 209.829 C 194.039 210.585,201.426 214.218,203.600 214.830 C 204.590 215.108,205.760 215.630,206.200 215.990 C 207.500 217.052,210.349 218.801,211.485 219.232 C 212.934 219.783,216.400 222.061,216.400 222.462 C 216.400 222.643,217.165 223.267,218.100 223.851 C 221.179 225.772,224.350 229.491,225.034 231.982 C 225.369 233.202,225.813 234.613,226.021 235.119 C 227.029 237.565,226.496 240.748,224.600 243.600 C 223.610 245.089,222.800 246.508,222.800 246.754 C 222.800 246.999,222.618 247.200,222.396 247.200 C 222.174 247.200,221.428 247.740,220.737 248.400 C 220.046 249.060,219.300 249.600,219.078 249.600 C 218.857 249.600,218.117 250.026,217.434 250.547 C 216.751 251.068,215.564 251.627,214.796 251.790 C 214.028 251.953,212.860 252.411,212.200 252.808 C 208.679 254.925,181.709 255.036,176.248 252.956 C 175.394 252.631,173.019 252.113,170.969 251.805 C 168.919 251.498,166.827 250.980,166.321 250.654 C 165.814 250.329,164.500 249.941,163.400 249.792 C 162.300 249.644,160.715 249.178,159.878 248.756 C 159.041 248.335,157.061 247.772,155.478 247.506 C 153.895 247.239,152.377 246.806,152.104 246.543 C 151.831 246.280,150.951 245.848,150.149 245.583 C 149.347 245.319,148.061 244.674,147.290 244.151 C 146.519 243.628,145.670 243.200,145.403 243.200 C 145.135 243.200,144.431 242.750,143.838 242.200 C 143.244 241.650,142.560 241.200,142.317 241.200 C 142.074 241.200,141.286 240.750,140.564 240.200 C 139.049 239.044,138.135 238.950,136.889 239.823 L 136.000 240.445 136.000 257.364 L 136.000 274.282 136.912 275.641 C 137.542 276.580,138.377 277.174,139.612 277.562 C 140.595 277.871,141.490 278.249,141.600 278.402 C 141.963 278.907,143.534 279.600,144.314 279.600 C 144.736 279.600,145.927 280.050,146.962 280.600 C 147.996 281.150,149.439 281.600,150.167 281.600 C 150.903 281.600,151.962 281.969,152.548 282.430 C 153.198 282.942,154.641 283.406,156.302 283.637 C 157.910 283.862,159.462 284.352,160.144 284.851 C 160.994 285.474,162.195 285.764,164.827 285.982 C 166.774 286.143,168.602 286.470,168.889 286.708 C 169.401 287.132,174.853 287.714,183.200 288.234 C 189.288 288.613,188.800 287.444,188.800 301.643 C 188.800 314.583,188.903 315.279,190.915 315.980 C 193.983 317.050,209.996 316.360,210.886 315.120 C 210.934 315.054,211.069 308.995,211.186 301.655 L 211.400 288.310 212.800 287.812 C 216.458 286.510,218.426 286.029,221.097 285.784 C 222.912 285.618,224.332 285.257,224.897 284.816 C 225.394 284.429,226.688 283.981,227.774 283.821 C 228.859 283.660,230.386 283.095,231.166 282.564 C 231.947 282.034,233.084 281.600,233.693 281.600 C 234.302 281.600,235.151 281.249,235.579 280.821 C 236.007 280.393,237.059 279.853,237.915 279.623 C 238.772 279.392,239.799 278.843,240.198 278.402 C 240.598 277.961,241.155 277.600,241.438 277.600 C 241.720 277.600,242.782 276.881,243.797 276.003 C 244.812 275.124,246.037 274.194,246.520 273.936 C 247.565 273.377,252.788 268.339,252.795 267.883 C 252.798 267.709,253.565 266.560,254.500 265.331 C 256.344 262.908,256.483 262.694,257.184 261.200 C 257.442 260.650,258.180 259.300,258.824 258.200 C 260.675 255.035,261.200 253.724,261.200 252.267 C 261.200 251.502,261.559 250.452,262.020 249.865 C 265.246 245.765,263.643 221.514,259.865 217.260 C 259.543 216.897,259.097 215.928,258.874 215.106 C 258.651 214.285,258.093 213.135,257.634 212.552 C 257.175 211.969,256.800 211.339,256.800 211.152 C 256.800 210.335,249.948 202.000,249.276 202.000 C 249.030 202.000,248.644 201.656,248.419 201.236 C 247.741 199.968,245.502 197.918,244.204 197.376 C 243.533 197.095,242.645 196.491,242.230 196.033 C 241.815 195.575,241.240 195.200,240.952 195.200 C 240.664 195.200,240.235 194.840,240.000 194.400 C 239.765 193.960,239.340 193.600,239.056 193.600 C 238.772 193.600,238.119 193.153,237.606 192.606 C 237.092 192.059,236.066 191.499,235.325 191.360 C 234.584 191.221,233.805 190.782,233.592 190.385 C 233.380 189.989,232.530 189.444,231.703 189.174 C 230.876 188.905,229.691 188.260,229.069 187.742 C 228.447 187.224,227.755 186.800,227.531 186.800 C 227.307 186.800,226.645 186.459,226.060 186.043 C 225.476 185.627,223.468 184.710,221.599 184.007 C 219.729 183.303,216.419 181.844,214.243 180.764 C 212.067 179.684,210.064 178.800,209.792 178.800 C 209.520 178.800,209.075 178.531,208.802 178.203 C 208.530 177.874,207.563 177.408,206.653 177.167 C 205.744 176.926,204.640 176.408,204.200 176.017 C 203.760 175.625,202.863 175.177,202.206 175.021 C 201.550 174.865,200.059 174.302,198.894 173.769 C 197.729 173.236,196.657 172.800,196.512 172.800 C 195.840 172.800,188.409 168.896,186.842 167.720 C 185.876 166.994,184.932 166.400,184.746 166.400 C 184.076 166.400,180.553 163.492,178.126 160.936 C 175.639 158.316,175.463 157.956,174.035 152.554 C 173.437 150.290,173.490 147.509,174.166 145.708 C 174.477 144.879,174.836 143.750,174.963 143.200 C 175.646 140.243,184.671 133.600,188.005 133.600 C 188.642 133.600,189.576 133.438,190.081 133.239 C 195.147 131.249,207.115 131.031,214.800 132.789 C 215.790 133.015,218.130 133.452,220.000 133.760 C 221.870 134.068,224.030 134.588,224.800 134.915 C 225.570 135.243,227.190 135.643,228.400 135.803 C 229.610 135.964,231.230 136.412,232.000 136.799 C 232.770 137.186,234.030 137.636,234.800 137.800 C 235.570 137.963,236.936 138.525,237.835 139.048 C 238.734 139.572,239.727 140.000,240.041 140.000 C 240.355 140.000,241.239 140.334,242.006 140.741 C 242.773 141.149,244.053 141.696,244.852 141.956 C 245.650 142.217,246.623 142.783,247.014 143.215 C 247.765 144.045,250.131 144.285,251.157 143.635 C 251.620 143.342,251.700 140.447,251.630 126.343 C 251.541 108.302,251.508 108.000,249.610 108.000 C 249.244 108.000,248.553 107.550,248.075 107.000 C 247.533 106.376,246.782 106.000,246.080 106.000 C 245.462 106.000,244.355 105.557,243.622 105.016 C 242.888 104.475,241.458 103.923,240.444 103.790 C 239.430 103.656,237.952 103.203,237.161 102.782 C 236.340 102.346,234.447 101.906,232.761 101.759 C 231.132 101.617,229.260 101.268,228.600 100.982 C 226.464 100.059,225.686 99.947,219.117 99.620 C 210.432 99.187,211.200 100.469,211.200 86.400 C 211.200 71.953,212.374 73.418,200.736 73.341 C 195.821 73.309,191.408 73.365,190.929 73.465 M209.339 75.706 C 209.963 76.162,210.039 77.332,210.115 87.692 C 210.218 101.644,209.498 100.319,217.234 100.789 C 220.405 100.982,223.990 101.422,225.200 101.768 C 226.410 102.113,228.930 102.512,230.800 102.654 C 232.824 102.808,234.792 103.209,235.663 103.646 C 236.468 104.049,237.908 104.497,238.863 104.640 C 239.818 104.784,241.140 105.223,241.800 105.614 C 242.460 106.006,243.757 106.528,244.682 106.774 C 245.607 107.020,246.597 107.449,246.882 107.727 C 247.167 108.006,247.992 108.476,248.717 108.772 L 250.033 109.311 249.917 125.822 C 249.798 142.635,249.735 143.371,248.502 142.341 C 248.116 142.019,246.270 141.074,244.400 140.241 C 242.530 139.409,240.370 138.398,239.600 137.995 C 236.609 136.428,226.967 133.527,222.400 132.820 C 220.750 132.564,218.320 131.960,217.000 131.478 C 213.615 130.240,192.453 130.134,189.800 131.342 C 188.920 131.743,187.224 132.330,186.031 132.648 C 179.996 134.255,173.823 140.160,172.525 145.567 C 170.609 153.550,175.606 163.639,183.213 167.148 C 183.991 167.507,185.437 168.465,186.426 169.277 C 187.416 170.089,189.030 171.122,190.013 171.572 C 190.996 172.022,192.070 172.556,192.400 172.760 C 193.438 173.400,197.356 175.139,198.400 175.424 C 199.506 175.725,206.158 178.746,208.479 180.001 C 209.293 180.440,210.153 180.800,210.391 180.800 C 210.629 180.800,213.204 181.950,216.112 183.356 C 219.020 184.762,222.030 186.120,222.800 186.374 C 223.570 186.628,226.000 187.815,228.200 189.013 C 230.400 190.210,232.796 191.458,233.524 191.785 C 234.252 192.112,235.936 193.207,237.266 194.218 C 238.596 195.230,239.981 196.164,240.342 196.294 C 240.704 196.424,241.270 196.776,241.600 197.076 C 242.255 197.672,244.377 199.198,246.078 200.294 C 246.671 200.677,247.243 201.320,247.348 201.724 C 247.454 202.129,247.914 202.557,248.370 202.676 C 248.827 202.796,249.200 203.041,249.200 203.222 C 249.200 203.403,249.875 204.349,250.700 205.323 C 253.424 208.542,253.781 208.988,254.700 210.326 C 255.201 211.055,255.850 212.225,256.143 212.926 C 256.436 213.627,256.974 214.447,257.338 214.749 C 257.702 215.051,258.001 215.591,258.002 215.949 C 258.002 216.307,258.542 217.680,259.200 219.000 C 259.858 220.320,260.398 221.786,260.398 222.258 C 260.399 222.730,260.743 224.260,261.161 225.658 C 262.739 230.925,262.555 242.422,260.805 247.936 C 260.362 249.330,260.000 251.051,260.000 251.759 C 260.000 252.468,259.733 253.396,259.406 253.824 C 259.080 254.251,258.625 255.267,258.396 256.082 C 258.167 256.897,257.707 257.836,257.375 258.168 C 257.043 258.500,256.488 259.453,256.143 260.286 C 255.797 261.119,255.259 262.070,254.948 262.400 C 254.019 263.384,252.000 266.091,251.998 266.355 C 251.994 266.893,246.522 272.320,245.399 272.899 C 244.739 273.239,243.856 273.897,243.437 274.359 C 243.018 274.822,242.533 275.200,242.358 275.200 C 242.183 275.200,241.235 275.743,240.251 276.408 C 239.267 277.072,237.773 277.900,236.931 278.247 C 236.089 278.595,235.098 279.148,234.729 279.476 C 234.359 279.804,233.297 280.243,232.369 280.452 C 231.440 280.660,230.193 281.178,229.598 281.602 C 229.003 282.025,227.725 282.496,226.758 282.648 C 225.791 282.801,224.256 283.242,223.346 283.629 C 222.436 284.016,220.276 284.542,218.546 284.799 C 213.949 285.480,212.579 285.901,211.210 287.053 L 209.983 288.085 210.011 300.649 C 210.027 307.558,209.930 313.389,209.796 313.606 C 209.339 314.345,190.530 314.116,190.243 313.367 C 190.109 313.019,190.000 307.259,190.000 300.567 C 190.000 285.649,190.518 286.800,183.800 286.800 C 181.270 286.800,177.625 286.544,175.700 286.230 C 173.775 285.917,170.400 285.451,168.200 285.196 C 166.000 284.940,163.030 284.297,161.600 283.767 C 160.170 283.237,158.181 282.630,157.180 282.418 C 156.179 282.206,154.559 281.669,153.580 281.225 C 152.601 280.781,151.387 280.414,150.882 280.409 C 150.377 280.404,149.118 279.950,148.085 279.400 C 147.052 278.850,145.953 278.400,145.643 278.400 C 144.847 278.400,140.849 276.429,139.296 275.271 L 137.991 274.298 138.096 257.849 L 138.200 241.400 139.400 241.536 C 140.060 241.611,141.396 242.196,142.369 242.836 C 143.341 243.476,144.331 244.000,144.569 244.000 C 144.806 244.001,145.529 244.456,146.175 245.012 C 146.822 245.568,147.812 246.132,148.375 246.265 C 148.939 246.398,149.670 246.738,150.000 247.019 C 150.822 247.720,154.580 249.044,159.600 250.400 C 161.910 251.024,164.684 251.819,165.764 252.167 C 166.844 252.515,168.610 252.800,169.690 252.800 C 170.769 252.800,172.046 253.011,172.526 253.269 C 173.798 253.952,177.898 254.770,180.131 254.786 C 181.193 254.794,184.523 255.176,187.531 255.635 C 193.344 256.522,202.157 256.534,206.000 255.660 C 211.495 254.411,212.709 254.078,213.800 253.524 C 214.460 253.189,215.552 252.810,216.226 252.682 C 217.657 252.411,223.243 248.742,224.160 247.471 C 228.881 240.927,229.340 235.824,225.787 229.384 C 223.855 225.881,218.234 221.199,211.363 217.370 C 209.843 216.523,208.299 215.553,207.930 215.215 C 207.562 214.877,206.032 214.079,204.530 213.442 C 203.029 212.805,200.540 211.746,199.000 211.090 C 197.460 210.433,195.744 209.575,195.186 209.182 C 194.629 208.790,193.503 208.343,192.683 208.189 C 191.864 208.035,190.790 207.596,190.297 207.213 C 189.803 206.830,188.680 206.285,187.800 206.002 C 186.920 205.718,186.059 205.248,185.887 204.955 C 185.714 204.663,184.814 204.221,183.887 203.973 C 182.959 203.725,181.980 203.341,181.711 203.121 C 180.989 202.529,175.184 199.600,174.734 199.600 C 174.521 199.600,173.759 199.151,173.040 198.603 C 172.321 198.055,171.163 197.493,170.467 197.353 C 169.770 197.214,169.200 196.965,169.200 196.799 C 169.200 196.634,168.316 196.118,167.235 195.653 C 166.154 195.188,165.209 194.671,165.135 194.504 C 164.920 194.020,161.923 191.787,160.500 191.052 C 159.785 190.682,159.200 190.228,159.200 190.042 C 159.200 189.857,158.108 189.020,156.774 188.183 C 152.346 185.407,142.997 174.054,141.801 170.000 C 141.638 169.450,141.287 168.730,141.020 168.400 C 138.616 165.429,137.109 145.412,139.002 141.600 C 139.275 141.050,139.619 139.602,139.768 138.381 C 139.916 137.161,140.388 135.631,140.816 134.981 C 141.244 134.332,141.596 133.409,141.597 132.931 C 141.599 132.453,142.046 131.531,142.592 130.882 C 143.138 130.234,143.948 128.915,144.393 127.952 C 145.630 125.272,149.885 119.605,152.156 117.614 C 152.792 117.056,153.602 116.254,153.956 115.830 C 155.228 114.309,156.273 113.387,157.617 112.600 C 158.368 112.160,159.797 111.318,160.792 110.728 C 161.786 110.138,162.972 109.480,163.426 109.266 C 163.881 109.051,164.941 108.409,165.782 107.838 C 166.623 107.267,167.621 106.800,168.000 106.800 C 168.379 106.800,169.314 106.376,170.078 105.857 C 170.842 105.338,172.120 104.792,172.917 104.642 C 173.714 104.493,175.138 104.042,176.083 103.640 C 177.027 103.238,179.420 102.685,181.400 102.410 C 183.380 102.135,185.810 101.630,186.800 101.288 C 190.152 100.127,189.952 100.954,190.083 87.738 C 190.182 77.801,190.293 75.911,190.800 75.591 C 191.753 74.989,208.501 75.093,209.339 75.706 " stroke="none" fill="#badcfc" fill-rule="evenodd"></path><path id="path4" d="M178.267 1.467 C 177.152 2.582,179.805 4.992,181.029 3.976 C 182.328 2.898,181.740 1.200,180.067 1.200 C 179.223 1.200,178.413 1.320,178.267 1.467 M218.400 2.363 C 218.400 3.983,219.662 4.714,220.973 3.854 C 222.590 2.795,222.125 1.424,220.100 1.277 C 218.448 1.157,218.400 1.188,218.400 2.363 M163.600 4.268 C 163.600 5.258,164.923 6.192,165.831 5.843 C 167.197 5.319,166.503 3.168,165.000 3.269 C 163.841 3.347,163.600 3.519,163.600 4.268 M233.600 4.126 C 233.600 5.389,234.367 5.996,235.447 5.586 C 236.874 5.045,236.492 3.428,234.900 3.275 C 233.754 3.164,233.600 3.265,233.600 4.126 M190.200 10.806 C 188.000 10.949,185.570 11.265,184.800 11.508 C 184.030 11.751,180.559 12.140,177.087 12.371 C 173.313 12.624,170.336 13.016,169.687 13.347 C 169.089 13.651,166.945 14.093,164.922 14.328 C 162.899 14.564,160.739 15.009,160.122 15.318 C 159.505 15.627,157.677 16.092,156.060 16.350 C 154.443 16.609,152.608 17.085,151.983 17.409 C 151.358 17.732,149.645 18.167,148.177 18.375 C 145.013 18.823,141.901 19.759,134.800 22.400 C 129.443 24.393,123.319 27.096,122.248 27.942 C 122.002 28.136,121.096 28.523,120.236 28.800 C 118.042 29.507,114.000 31.555,114.000 31.959 C 114.000 32.144,113.160 32.531,112.133 32.819 C 110.181 33.365,104.920 36.299,103.200 37.800 C 102.650 38.280,101.628 38.898,100.929 39.173 C 100.230 39.448,99.565 39.914,99.453 40.207 C 99.340 40.501,98.472 41.119,97.524 41.580 C 95.043 42.786,94.089 43.377,93.059 44.344 C 92.558 44.815,91.954 45.200,91.716 45.200 C 91.478 45.200,90.860 45.647,90.342 46.193 C 89.824 46.739,89.173 47.189,88.896 47.193 C 88.619 47.197,87.809 47.731,87.096 48.379 C 85.693 49.655,85.053 50.191,81.400 53.149 C 80.080 54.217,78.334 55.746,77.520 56.546 C 76.706 57.346,75.863 58.000,75.646 58.000 C 75.430 58.000,74.296 58.923,73.127 60.050 C 64.339 68.523,60.143 72.683,59.800 73.263 C 59.295 74.116,56.605 77.308,54.900 79.078 C 54.185 79.820,53.600 80.594,53.600 80.800 C 53.600 81.005,53.105 81.716,52.500 82.381 C 51.895 83.046,50.986 84.088,50.479 84.695 C 49.973 85.303,49.028 86.383,48.379 87.096 C 47.731 87.809,47.197 88.619,47.193 88.896 C 47.189 89.173,46.739 89.824,46.193 90.342 C 45.647 90.860,45.200 91.525,45.200 91.819 C 45.200 92.114,44.861 92.592,44.448 92.882 C 44.034 93.171,43.029 94.667,42.214 96.204 C 41.399 97.742,40.401 99.309,39.997 99.686 C 39.593 100.064,39.138 100.784,38.986 101.286 C 38.834 101.789,38.309 102.650,37.819 103.200 C 36.675 104.483,33.200 110.347,33.200 110.995 C 33.200 111.266,32.750 112.151,32.200 112.962 C 31.650 113.772,31.200 114.536,31.200 114.660 C 31.200 114.783,30.776 115.727,30.259 116.758 C 29.741 117.788,29.088 119.344,28.807 120.216 C 28.526 121.087,28.136 122.002,27.942 122.248 C 27.096 123.319,24.393 129.443,22.400 134.800 C 19.759 141.901,18.823 145.013,18.375 148.177 C 18.167 149.645,17.728 151.365,17.400 152.000 C 17.072 152.634,16.622 154.434,16.400 156.000 C 16.178 157.566,15.720 159.381,15.382 160.034 C 15.045 160.687,14.588 162.792,14.368 164.711 C 14.148 166.630,13.706 168.830,13.385 169.600 C 13.054 170.394,12.562 174.045,12.249 178.035 C 11.916 182.285,11.480 185.453,11.149 186.035 C 10.282 187.558,10.413 211.847,11.302 214.600 C 11.675 215.753,12.128 219.381,12.372 223.167 C 12.659 227.618,12.983 230.020,13.377 230.621 C 13.697 231.109,14.085 232.924,14.239 234.654 C 14.394 236.384,14.919 238.880,15.405 240.200 C 15.892 241.520,16.412 243.676,16.560 244.992 C 16.708 246.308,17.079 247.766,17.385 248.233 C 17.691 248.700,18.133 250.466,18.369 252.157 C 18.604 253.849,19.042 255.721,19.342 256.317 C 19.642 256.912,19.984 258.030,20.103 258.800 C 20.221 259.570,20.766 261.190,21.313 262.400 C 21.860 263.610,22.600 265.626,22.959 266.880 C 23.317 268.133,23.783 269.266,23.994 269.397 C 24.206 269.527,24.573 270.391,24.812 271.317 C 25.050 272.243,26.392 275.340,27.794 278.200 C 29.196 281.060,30.712 284.210,31.162 285.200 C 31.612 286.190,32.160 287.270,32.380 287.600 C 32.600 287.930,33.060 288.830,33.401 289.600 C 34.439 291.941,36.174 294.818,37.501 296.399 C 38.193 297.223,38.879 298.375,39.025 298.958 C 39.172 299.541,39.611 300.242,40.001 300.516 C 40.392 300.789,41.011 301.640,41.377 302.407 C 42.550 304.861,43.579 306.589,44.113 307.000 C 44.399 307.220,45.046 308.075,45.549 308.900 C 46.053 309.725,46.631 310.400,46.833 310.400 C 47.035 310.400,47.200 310.672,47.200 311.004 C 47.200 311.336,47.695 312.157,48.300 312.829 C 48.905 313.501,49.850 314.598,50.400 315.266 C 50.950 315.935,51.677 316.785,52.015 317.156 C 52.353 317.526,53.044 318.500,53.550 319.320 C 54.057 320.139,54.815 320.994,55.236 321.219 C 55.656 321.444,56.000 321.820,56.000 322.054 C 56.000 322.288,56.495 322.980,57.100 323.593 C 57.705 324.206,58.560 325.204,59.000 325.811 C 60.091 327.317,73.019 340.400,73.415 340.400 C 73.739 340.400,74.392 340.948,76.393 342.900 C 77.013 343.505,77.717 344.000,77.957 344.000 C 78.197 344.000,78.620 344.370,78.897 344.823 C 79.173 345.275,80.023 346.034,80.785 346.508 C 82.307 347.455,82.346 347.488,85.799 350.622 C 87.119 351.820,88.396 352.800,88.637 352.800 C 88.879 352.800,89.390 353.147,89.774 353.572 C 90.158 353.996,91.086 354.635,91.836 354.990 C 92.586 355.346,93.200 355.808,93.200 356.016 C 93.200 356.382,94.359 357.070,97.900 358.805 C 98.835 359.263,99.600 359.815,99.600 360.033 C 99.600 360.250,100.365 360.781,101.300 361.212 C 102.235 361.643,103.810 362.595,104.800 363.329 C 106.828 364.832,107.214 365.052,112.468 367.700 C 114.541 368.745,116.432 369.600,116.669 369.600 C 116.907 369.600,117.302 369.841,117.546 370.135 C 117.791 370.430,118.720 370.889,119.612 371.156 C 120.503 371.423,122.776 372.443,124.662 373.421 C 126.548 374.399,128.297 375.200,128.549 375.200 C 128.800 375.200,129.852 375.650,130.885 376.200 C 131.918 376.750,132.972 377.200,133.226 377.200 C 133.481 377.200,135.244 377.806,137.144 378.547 C 141.279 380.159,145.964 381.503,148.301 381.747 C 149.236 381.844,150.946 382.286,152.101 382.728 C 153.255 383.170,155.280 383.707,156.600 383.922 C 157.920 384.136,159.764 384.600,160.697 384.953 C 161.630 385.305,163.700 385.706,165.297 385.844 C 166.894 385.982,168.594 386.340,169.076 386.640 C 169.596 386.965,172.193 387.354,175.476 387.599 C 182.669 388.137,184.825 388.387,185.800 388.795 C 187.043 389.317,201.561 390.152,204.012 389.843 C 205.215 389.691,207.820 389.473,209.800 389.358 C 211.780 389.243,213.850 388.985,214.400 388.786 C 214.950 388.587,218.724 388.141,222.786 387.796 C 227.532 387.393,230.392 386.979,230.786 386.637 C 231.124 386.345,232.856 386.000,234.642 385.870 C 236.425 385.740,238.797 385.274,239.912 384.835 C 241.027 384.395,242.898 383.913,244.070 383.762 C 245.241 383.612,247.041 383.162,248.070 382.762 C 249.098 382.363,250.898 381.910,252.070 381.757 C 254.908 381.386,266.686 377.506,269.416 376.042 C 270.281 375.579,271.280 375.200,271.637 375.200 C 272.235 375.200,277.279 372.747,278.200 372.008 C 278.420 371.831,279.410 371.409,280.400 371.070 C 282.748 370.264,285.688 368.814,286.197 368.209 C 286.419 367.946,287.394 367.506,288.364 367.230 C 289.334 366.955,290.594 366.411,291.164 366.022 C 291.734 365.633,293.235 364.711,294.500 363.973 C 295.765 363.235,296.800 362.483,296.800 362.301 C 296.800 362.120,297.594 361.631,298.563 361.216 C 299.533 360.800,300.478 360.221,300.663 359.930 C 300.849 359.638,301.885 358.950,302.966 358.400 C 306.283 356.712,306.843 356.352,307.068 355.766 C 307.188 355.455,307.519 355.200,307.805 355.200 C 308.091 355.200,309.078 354.570,310.000 353.800 C 310.922 353.030,311.849 352.400,312.061 352.400 C 312.273 352.400,313.216 351.635,314.157 350.700 C 315.098 349.765,316.141 348.820,316.475 348.600 C 318.268 347.417,320.598 345.495,321.087 344.797 C 321.394 344.358,321.884 344.000,322.177 344.000 C 322.469 344.000,323.003 343.550,323.363 343.000 C 323.724 342.450,324.239 341.999,324.509 341.998 C 324.779 341.997,325.630 341.363,326.400 340.589 C 327.170 339.816,328.053 338.962,328.362 338.691 C 330.015 337.245,338.400 328.865,338.400 328.659 C 338.400 328.525,339.210 327.670,340.200 326.757 C 341.190 325.845,342.000 324.855,342.000 324.558 C 342.000 324.261,342.450 323.724,343.000 323.363 C 343.550 323.003,344.000 322.469,344.000 322.177 C 344.000 321.884,344.358 321.394,344.797 321.087 C 345.486 320.604,347.312 318.396,348.600 316.488 C 348.820 316.162,349.765 315.129,350.700 314.192 C 351.635 313.255,352.400 312.305,352.400 312.082 C 352.400 311.858,353.030 310.922,353.800 310.000 C 354.570 309.078,355.200 308.091,355.200 307.805 C 355.200 307.519,355.455 307.188,355.766 307.068 C 356.352 306.843,356.712 306.283,358.400 302.966 C 358.950 301.885,359.619 300.859,359.887 300.688 C 360.155 300.516,360.729 299.571,361.164 298.588 C 361.599 297.604,362.136 296.800,362.358 296.800 C 362.580 296.800,363.429 295.585,364.245 294.100 C 365.061 292.615,365.952 291.130,366.225 290.800 C 366.498 290.470,366.948 289.390,367.226 288.400 C 367.504 287.410,367.941 286.420,368.198 286.200 C 368.791 285.691,370.531 282.227,371.178 280.266 C 371.451 279.439,372.467 277.329,373.437 275.576 C 374.407 273.823,375.200 272.074,375.200 271.689 C 375.200 271.303,375.588 270.271,376.061 269.394 C 376.535 268.517,377.237 266.810,377.623 265.600 C 378.008 264.390,378.684 262.500,379.125 261.400 C 380.264 258.559,381.504 254.136,381.810 251.824 C 381.954 250.736,382.391 249.026,382.780 248.024 C 383.170 247.021,383.612 245.241,383.762 244.070 C 383.913 242.898,384.391 241.037,384.826 239.934 C 385.261 238.832,385.724 236.550,385.856 234.865 C 385.987 233.179,386.342 231.404,386.644 230.919 C 386.981 230.378,387.356 227.752,387.615 224.119 C 387.847 220.864,388.224 217.300,388.454 216.200 C 389.877 209.375,390.123 187.575,388.797 185.800 C 388.428 185.306,388.116 182.627,387.590 175.464 C 387.328 171.881,386.997 169.740,386.654 169.397 C 386.355 169.097,386.017 167.483,385.879 165.687 C 385.744 163.939,385.336 161.719,384.973 160.754 C 384.609 159.789,384.136 157.920,383.922 156.600 C 383.707 155.280,383.197 153.300,382.788 152.200 C 382.380 151.100,381.929 149.300,381.787 148.200 C 381.458 145.652,380.253 141.546,378.543 137.144 C 377.804 135.244,377.199 133.444,377.199 133.144 C 377.198 132.845,376.860 132.048,376.448 131.372 C 376.037 130.697,375.571 129.707,375.414 129.172 C 375.047 127.923,370.361 118.264,369.993 118.000 C 369.841 117.890,369.596 117.150,369.450 116.355 C 369.304 115.560,368.838 114.596,368.415 114.213 C 367.992 113.830,367.533 113.004,367.395 112.377 C 367.257 111.750,366.822 110.824,366.427 110.319 C 366.033 109.813,365.575 108.950,365.410 108.400 C 365.074 107.280,362.597 103.369,361.985 102.990 C 361.626 102.769,360.789 101.379,359.250 98.448 C 358.180 96.411,355.953 93.200,355.610 93.200 C 355.418 93.200,355.054 92.569,354.799 91.797 C 354.544 91.025,353.990 90.209,353.568 89.983 C 353.146 89.757,352.800 89.307,352.800 88.982 C 352.800 88.658,352.269 87.809,351.621 87.096 C 350.972 86.383,350.027 85.300,349.521 84.688 C 349.014 84.077,348.323 83.261,347.985 82.874 C 347.647 82.487,346.958 81.502,346.453 80.685 C 345.948 79.868,345.401 79.200,345.238 79.200 C 344.968 79.200,342.612 76.408,340.893 74.049 C 340.512 73.526,339.480 72.390,338.600 71.525 C 335.539 68.515,334.179 67.149,330.592 63.485 C 328.608 61.458,326.538 59.479,325.992 59.087 C 323.602 57.368,320.800 55.034,320.800 54.762 C 320.800 54.599,320.132 54.052,319.315 53.547 C 318.498 53.042,317.513 52.353,317.126 52.015 C 316.739 51.677,315.923 50.986,315.312 50.479 C 314.700 49.973,313.617 49.028,312.904 48.379 C 312.191 47.731,311.336 47.200,311.004 47.200 C 310.672 47.200,310.400 47.035,310.400 46.834 C 310.400 46.633,309.545 45.921,308.500 45.251 C 307.455 44.581,305.700 43.398,304.600 42.623 C 303.500 41.847,302.374 41.209,302.097 41.206 C 301.821 41.203,301.216 40.765,300.753 40.232 C 300.291 39.700,299.453 39.149,298.892 39.009 C 298.331 38.868,297.160 38.143,296.290 37.399 C 295.421 36.654,293.934 35.681,292.986 35.235 C 292.038 34.790,291.150 34.242,291.011 34.018 C 290.873 33.794,289.782 33.326,288.587 32.979 C 287.392 32.632,286.311 32.179,286.183 31.973 C 285.879 31.481,281.752 29.441,279.764 28.800 C 278.904 28.523,277.990 28.130,277.734 27.927 C 276.948 27.305,271.699 24.800,271.181 24.800 C 270.914 24.800,270.133 24.456,269.447 24.037 C 268.761 23.617,267.390 23.059,266.400 22.798 C 265.410 22.537,263.610 21.872,262.400 21.321 C 261.190 20.769,259.570 20.221,258.800 20.103 C 258.030 19.984,256.912 19.642,256.317 19.342 C 255.721 19.042,253.849 18.604,252.157 18.369 C 250.466 18.133,248.703 17.695,248.241 17.394 C 247.778 17.094,246.410 16.735,245.200 16.598 C 243.990 16.460,241.740 15.925,240.200 15.407 C 238.660 14.890,236.056 14.357,234.413 14.223 C 232.770 14.088,231.019 13.711,230.522 13.385 C 229.908 12.983,227.590 12.655,223.308 12.366 C 219.839 12.131,216.280 11.751,215.400 11.521 C 211.745 10.567,199.275 10.213,190.200 10.806 M130.667 11.867 C 130.126 12.408,130.424 13.585,131.208 14.004 C 132.294 14.585,132.800 14.195,132.800 12.776 C 132.800 11.628,131.472 11.062,130.667 11.867 M267.378 12.700 C 267.450 13.305,267.529 14.029,267.554 14.309 C 267.641 15.271,269.600 13.590,269.600 12.554 C 269.600 11.765,269.397 11.600,268.424 11.600 C 267.376 11.600,267.262 11.720,267.378 12.700 M214.600 13.155 C 221.289 13.512,226.603 14.070,228.009 14.562 C 228.334 14.676,230.364 14.958,232.520 15.188 C 234.676 15.419,236.840 15.870,237.328 16.189 C 237.816 16.509,239.562 16.977,241.208 17.230 C 242.853 17.483,244.920 18.016,245.800 18.415 C 246.680 18.814,248.555 19.348,249.966 19.600 C 251.377 19.852,253.177 20.311,253.966 20.618 C 254.755 20.926,256.120 21.356,257.000 21.574 C 259.111 22.096,264.273 23.865,265.860 24.609 C 266.554 24.934,267.274 25.201,267.460 25.201 C 268.757 25.207,294.986 37.876,295.600 38.794 C 295.710 38.958,296.580 39.522,297.534 40.046 C 298.488 40.571,299.776 41.284,300.396 41.630 C 301.016 41.977,302.413 43.006,303.502 43.918 C 304.590 44.829,305.942 45.750,306.505 45.964 C 307.585 46.375,311.257 49.076,313.572 51.163 C 314.327 51.843,315.084 52.400,315.256 52.400 C 316.115 52.400,326.120 61.284,332.400 67.624 C 339.563 74.856,347.600 83.840,347.600 84.615 C 347.600 84.777,348.545 86.038,349.700 87.417 C 350.855 88.797,352.340 90.862,353.000 92.008 C 353.660 93.153,355.028 95.109,356.039 96.354 C 357.050 97.600,358.099 99.287,358.368 100.104 C 358.638 100.920,359.028 101.694,359.236 101.822 C 360.172 102.401,363.010 107.485,368.059 117.631 C 373.171 127.902,374.072 129.912,375.975 135.294 C 376.385 136.452,377.188 138.619,377.760 140.108 C 378.332 141.597,378.800 143.271,378.800 143.828 C 378.800 144.384,379.055 145.333,379.367 145.937 C 379.679 146.540,380.143 148.196,380.398 149.617 C 380.653 151.038,381.218 153.010,381.654 154.000 C 382.089 154.990,382.594 156.978,382.775 158.417 C 382.956 159.856,383.486 161.871,383.952 162.895 C 384.418 163.919,384.800 165.466,384.800 166.334 C 384.800 167.202,385.058 169.327,385.374 171.056 C 388.217 186.641,388.327 211.934,385.621 227.800 C 385.171 230.440,384.802 233.195,384.801 233.922 C 384.801 234.649,384.441 236.032,384.002 236.995 C 383.564 237.958,383.018 240.063,382.790 241.673 C 382.561 243.283,382.032 245.320,381.613 246.200 C 381.193 247.080,380.644 248.962,380.393 250.383 C 380.141 251.804,379.679 253.460,379.367 254.063 C 379.055 254.667,378.800 255.616,378.800 256.172 C 378.800 256.729,378.332 258.403,377.760 259.892 C 377.188 261.381,376.407 263.500,376.025 264.600 C 375.285 266.729,374.658 268.474,373.759 270.901 C 372.885 273.261,362.060 294.793,361.163 295.956 C 359.891 297.605,358.400 300.001,358.400 300.397 C 358.400 300.596,357.524 301.812,356.453 303.099 C 355.381 304.386,354.367 305.880,354.199 306.419 C 354.030 306.959,353.421 307.974,352.846 308.676 C 351.535 310.275,348.442 314.302,346.263 317.248 C 340.896 324.502,323.313 342.046,316.844 346.600 C 315.181 347.771,311.005 350.972,308.600 352.919 C 307.940 353.454,306.959 354.029,306.419 354.198 C 305.880 354.367,304.386 355.381,303.099 356.453 C 301.812 357.524,300.596 358.400,300.397 358.400 C 300.001 358.400,297.605 359.891,295.956 361.163 C 294.795 362.058,271.835 373.600,271.214 373.600 C 270.998 373.600,270.052 373.937,269.111 374.350 C 266.955 375.295,265.244 375.898,262.163 376.801 C 260.822 377.193,259.166 377.804,258.483 378.157 C 257.799 378.511,256.772 378.800,256.200 378.800 C 255.628 378.800,254.667 379.055,254.063 379.367 C 253.460 379.679,251.804 380.141,250.383 380.393 C 248.962 380.644,247.080 381.193,246.200 381.613 C 245.320 382.032,243.326 382.555,241.769 382.776 C 240.211 382.997,238.141 383.539,237.169 383.980 C 236.196 384.421,234.618 384.786,233.663 384.791 C 232.707 384.796,229.647 385.240,226.863 385.777 C 213.202 388.415,187.739 388.229,170.848 385.368 C 169.004 385.056,166.879 384.800,166.126 384.800 C 165.372 384.800,163.919 384.418,162.895 383.952 C 161.871 383.486,159.856 382.956,158.417 382.775 C 156.978 382.594,154.990 382.089,154.000 381.654 C 153.010 381.218,151.038 380.653,149.617 380.398 C 148.196 380.143,146.540 379.679,145.937 379.367 C 145.333 379.055,144.384 378.800,143.828 378.800 C 143.271 378.800,141.597 378.332,140.108 377.760 C 138.619 377.188,136.452 376.385,135.294 375.975 C 130.465 374.267,128.355 373.387,123.741 371.153 C 121.069 369.859,118.667 368.800,118.403 368.800 C 118.139 368.800,117.446 368.461,116.862 368.047 C 116.278 367.633,113.460 366.087,110.600 364.611 C 107.740 363.135,105.130 361.695,104.800 361.410 C 104.262 360.947,102.797 360.105,99.648 358.449 C 99.071 358.146,98.150 357.502,97.600 357.018 C 97.050 356.533,95.700 355.573,94.600 354.884 C 91.548 352.972,87.882 350.377,86.000 348.796 C 85.450 348.333,84.102 347.290,83.005 346.478 C 81.908 345.665,80.738 344.710,80.405 344.356 C 80.072 344.001,78.000 342.178,75.800 340.303 C 71.278 336.450,62.465 327.602,58.964 323.400 C 56.947 320.980,55.003 318.603,51.602 314.400 C 49.762 312.127,46.133 307.106,45.200 305.544 C 44.650 304.624,43.763 303.340,43.228 302.692 C 42.279 301.541,42.009 301.103,40.046 297.534 C 39.522 296.580,38.959 295.710,38.795 295.600 C 38.631 295.490,37.195 292.880,35.603 289.800 C 34.012 286.720,32.379 283.570,31.976 282.800 C 29.407 277.899,25.200 268.355,25.200 267.429 C 25.200 267.260,24.934 266.554,24.609 265.860 C 23.865 264.273,22.096 259.111,21.574 257.000 C 21.356 256.120,20.926 254.755,20.618 253.966 C 20.311 253.177,19.852 251.377,19.600 249.966 C 19.348 248.555,18.814 246.680,18.415 245.800 C 18.016 244.920,17.483 242.853,17.230 241.208 C 16.977 239.562,16.509 237.816,16.189 237.328 C 15.870 236.840,15.416 234.676,15.180 232.520 C 14.945 230.364,14.478 227.610,14.142 226.400 C 12.415 220.171,12.265 179.238,13.955 175.048 C 14.211 174.415,14.675 171.715,14.987 169.048 C 15.312 166.279,15.893 163.428,16.343 162.400 C 16.777 161.410,17.254 159.520,17.404 158.200 C 17.553 156.880,18.026 155.054,18.453 154.142 C 18.881 153.230,19.412 151.361,19.633 149.988 C 19.854 148.616,20.273 147.022,20.564 146.447 C 20.855 145.871,21.217 144.680,21.368 143.800 C 21.519 142.920,21.976 141.300,22.385 140.200 C 22.793 139.100,23.584 136.940,24.142 135.400 C 26.277 129.503,27.247 127.179,29.191 123.295 C 30.296 121.088,31.200 119.018,31.200 118.695 C 31.200 118.372,31.537 117.679,31.948 117.154 C 32.359 116.629,33.455 114.670,34.383 112.800 C 37.405 106.711,38.104 105.412,38.794 104.600 C 39.168 104.160,40.162 102.540,41.002 101.000 C 41.843 99.460,42.665 98.110,42.828 98.000 C 43.226 97.731,45.673 94.075,46.374 92.700 C 46.683 92.095,47.080 91.600,47.257 91.600 C 47.434 91.600,47.879 91.015,48.246 90.300 C 48.879 89.065,49.725 87.909,51.716 85.556 C 52.202 84.982,53.050 83.925,53.600 83.207 C 54.791 81.652,57.611 78.283,57.959 78.000 C 58.094 77.890,58.741 77.080,59.397 76.200 C 60.581 74.612,70.306 64.906,74.705 60.922 C 80.766 55.434,83.033 53.469,83.975 52.887 C 84.539 52.539,85.360 51.923,85.800 51.518 C 87.158 50.269,89.693 48.400,90.030 48.400 C 90.206 48.400,90.922 47.879,91.619 47.241 C 92.317 46.604,93.363 45.980,93.944 45.855 C 94.525 45.730,95.771 44.903,96.714 44.017 C 98.370 42.461,99.102 41.968,102.453 40.155 C 103.312 39.691,104.326 39.035,104.707 38.697 C 105.088 38.359,106.750 37.423,108.400 36.617 C 110.050 35.810,111.732 34.969,112.138 34.748 C 112.544 34.527,116.054 32.761,119.938 30.823 C 126.659 27.470,128.987 26.464,135.400 24.142 C 136.940 23.584,139.100 22.793,140.200 22.385 C 141.300 21.976,142.920 21.519,143.800 21.368 C 144.680 21.217,145.871 20.855,146.447 20.564 C 147.022 20.273,148.616 19.854,149.988 19.633 C 151.361 19.412,153.230 18.877,154.142 18.444 C 155.054 18.011,156.880 17.534,158.200 17.385 C 159.520 17.236,161.410 16.761,162.400 16.331 C 163.390 15.901,166.090 15.307,168.400 15.012 C 170.710 14.717,174.760 14.195,177.400 13.852 C 187.664 12.519,198.794 12.311,214.600 13.155 M114.500 19.887 C 115.105 19.978,116.095 19.978,116.700 19.887 C 117.305 19.795,116.810 19.720,115.600 19.720 C 114.390 19.720,113.895 19.795,114.500 19.887 M283.300 19.887 C 283.905 19.978,284.895 19.978,285.500 19.887 C 286.105 19.795,285.610 19.720,284.400 19.720 C 283.190 19.720,282.695 19.795,283.300 19.887 M363.257 87.608 C 362.836 88.816,363.216 89.200,364.833 89.200 C 365.590 89.200,366.043 86.845,365.300 86.769 C 365.135 86.753,364.696 86.680,364.325 86.609 C 363.883 86.523,363.515 86.868,363.257 87.608 M19.720 115.600 C 19.720 116.810,19.795 117.305,19.887 116.700 C 19.978 116.095,19.978 115.105,19.887 114.500 C 19.795 113.895,19.720 114.390,19.720 115.600 M11.867 130.667 C 11.062 131.472,11.628 132.800,12.776 132.800 C 14.195 132.800,14.585 132.294,14.004 131.208 C 13.585 130.424,12.408 130.126,11.867 130.667 M386.029 131.300 C 385.600 132.417,386.020 132.908,387.254 132.734 C 388.718 132.527,388.864 130.400,387.414 130.400 C 386.705 130.400,386.264 130.686,386.029 131.300 M3.269 165.000 C 3.181 166.316,3.249 166.400,4.400 166.400 C 5.802 166.400,6.268 165.647,5.617 164.431 C 4.846 162.992,3.381 163.347,3.269 165.000 M394.556 164.632 C 394.247 165.864,394.638 166.400,395.849 166.400 C 396.738 166.400,396.837 166.254,396.725 165.100 C 396.567 163.462,394.938 163.110,394.556 164.632 M1.467 176.267 C 0.692 177.041,1.200 181.030,2.082 181.096 C 3.252 181.184,3.893 180.600,4.210 179.156 C 4.639 177.201,2.639 175.094,1.467 176.267 M396.332 178.989 C 395.640 180.508,396.307 182.178,397.606 182.178 C 399.056 182.178,399.149 178.278,397.704 178.073 C 397.058 177.981,396.675 178.237,396.332 178.989 M397.334 218.016 C 395.966 218.542,395.576 219.593,396.258 220.912 C 397.212 222.756,398.566 222.281,398.726 220.046 C 398.871 218.022,398.547 217.550,397.334 218.016 M1.277 220.100 C 1.424 222.125,2.795 222.590,3.854 220.973 C 4.714 219.662,3.983 218.400,2.363 218.400 C 1.188 218.400,1.157 218.448,1.277 220.100 M3.200 235.087 C 3.200 236.216,3.338 236.400,4.186 236.400 C 5.418 236.400,6.285 235.026,5.585 234.182 C 4.662 233.070,3.200 233.625,3.200 235.087 M394.586 234.023 C 394.033 234.918,394.787 236.458,395.714 236.326 C 397.120 236.126,397.245 233.600,395.849 233.600 C 395.298 233.600,394.730 233.790,394.586 234.023 M11.600 268.424 C 11.600 269.397,11.765 269.600,12.554 269.600 C 13.590 269.600,15.271 267.641,14.309 267.554 C 14.029 267.529,13.305 267.450,12.700 267.378 C 11.720 267.262,11.600 267.376,11.600 268.424 M386.150 267.504 C 385.338 268.039,386.259 269.600,387.387 269.600 C 388.201 269.600,388.400 269.403,388.400 268.600 C 388.400 268.050,388.235 267.600,388.033 267.600 C 387.831 267.600,387.426 267.512,387.133 267.404 C 386.840 267.297,386.398 267.342,386.150 267.504 M19.720 284.400 C 19.720 285.610,19.795 286.105,19.887 285.500 C 19.978 284.895,19.978 283.905,19.887 283.300 C 19.795 282.695,19.720 283.190,19.720 284.400 M131.300 386.029 C 130.686 386.264,130.400 386.705,130.400 387.414 C 130.400 388.864,132.527 388.718,132.734 387.254 C 132.908 386.020,132.417 385.600,131.300 386.029 M267.461 386.187 C 267.045 387.271,267.663 388.400,268.673 388.400 C 269.498 388.400,269.633 388.232,269.527 387.343 C 269.384 386.149,267.813 385.269,267.461 386.187 M163.867 394.667 C 163.063 395.470,163.628 396.800,164.773 396.800 C 165.960 396.800,166.752 395.693,166.202 394.804 C 165.923 394.351,164.278 394.255,163.867 394.667 M233.867 394.667 C 233.720 394.813,233.600 395.365,233.600 395.892 C 233.600 397.141,236.098 397.101,236.336 395.848 C 236.544 394.751,234.676 393.858,233.867 394.667 M178.633 396.526 C 177.223 397.558,177.997 398.600,180.172 398.600 C 181.933 398.600,182.141 398.506,182.202 397.679 C 182.313 396.164,180.104 395.450,178.633 396.526 M217.700 396.412 C 217.093 396.657,216.800 397.110,216.800 397.806 C 216.800 399.195,221.675 399.214,221.939 397.826 C 222.226 396.326,219.870 395.540,217.700 396.412 " stroke="none" fill="#649ad7" fill-rule="evenodd"></path></g></svg>